<svg width="13" height="12" viewBox="0 0 13 12" fill="none" xmlns="http://www.w3.org/2000/svg">
<path d="M1.10237 1.23333C1.10237 0.827708 1.41781 0.5 1.80825 0.5H9.57296C11.1325 0.5 12.3965 1.81313 12.3965 3.43333C12.3965 5.05354 11.1325 6.36667 9.57296 6.36667C9.57296 7.58125 8.62443 8.56667 7.45531 8.56667H3.22001C2.0509 8.56667 1.10237 7.58125 1.10237 6.36667V1.23333ZM10.9847 3.43333C10.9847 2.62438 10.3516 1.96667 9.57296 1.96667V4.9C10.3516 4.9 10.9847 4.24229 10.9847 3.43333ZM1.10237 10.0333H9.57296C9.9634 10.0333 10.2788 10.361 10.2788 10.7667C10.2788 11.1723 9.9634 11.5 9.57296 11.5H1.10237C0.711926 11.5 0.396484 11.1723 0.396484 10.7667C0.396484 10.361 0.711926 10.0333 1.10237 10.0333Z" fill="#D41C3C"/>
</svg>
