<svg width="13" height="12" viewBox="0 0 13 12" fill="none" xmlns="http://www.w3.org/2000/svg">
<path fill-rule="evenodd" clip-rule="evenodd" d="M2.5285 1.26276C2.5285 0.927855 2.66546 0.606667 2.90926 0.369854C3.15306 0.13304 3.48372 0 3.8285 0H8.9596C9.30438 0 9.63504 0.13304 9.87884 0.369854C10.1226 0.606667 10.2596 0.927855 10.2596 1.26276V3.60707H11.7C12.0448 3.60707 12.3754 3.74011 12.6192 3.97692C12.863 4.21374 13 4.53493 13 4.86983V10.7372C13 11.0721 12.863 11.3933 12.6192 11.6301C12.3754 11.867 12.0448 12 11.7 12H1.3C0.955218 12 0.624558 11.867 0.380761 11.6301C0.136964 11.3933 0 11.0721 0 10.7372V4.86983C0 4.53493 0.136964 4.21374 0.380761 3.97692C0.624558 3.74011 0.955218 3.60707 1.3 3.60707H2.5285V1.26276ZM2.5285 10.7372H1.3V4.86983H2.5285V10.7372ZM10.2596 10.7372H11.7V4.86983H10.2596V10.7372ZM7.0304 2.01726H5.7304V2.9719H4.7476V4.23466H5.7304V5.18931H7.0304V4.23466H8.0132V2.9719H7.0304V2.01726ZM7.48995 7.83542H5.27085V10.8143H7.48995V7.83542Z" fill="#5682FC"/>
</svg>
