<svg width="13" height="12" viewBox="0 0 13 12" fill="none" xmlns="http://www.w3.org/2000/svg">
<path d="M7.20968 11.6109L7.20307 11.6121L7.16047 11.6331L7.14848 11.6355L7.14008 11.6331L7.09748 11.6121C7.09108 11.6101 7.08627 11.6111 7.08307 11.6151L7.08068 11.6211L7.07047 11.8779L7.07348 11.8899L7.07948 11.8977L7.14187 11.9421L7.15087 11.9445L7.15807 11.9421L7.22047 11.8977L7.22768 11.8881L7.23007 11.8779L7.21987 11.6217C7.21827 11.6153 7.21488 11.6117 7.20968 11.6109ZM7.36867 11.5431L7.36088 11.5443L7.24987 11.6001L7.24387 11.6061L7.24208 11.6127L7.25287 11.8707L7.25587 11.8779L7.26068 11.8821L7.38127 11.9379C7.38887 11.9399 7.39467 11.9383 7.39867 11.9331L7.40107 11.9247L7.38068 11.5563C7.37868 11.5491 7.37467 11.5447 7.36867 11.5431ZM6.93967 11.5443C6.93703 11.5427 6.93387 11.5422 6.93085 11.5429C6.92783 11.5436 6.92519 11.5454 6.92348 11.5479L6.91987 11.5563L6.89948 11.9247C6.89988 11.9319 6.90328 11.9367 6.90968 11.9391L6.91867 11.9379L7.03927 11.8821L7.04528 11.8773L7.04767 11.8707L7.05788 11.6127L7.05607 11.6055L7.05007 11.5995L6.93967 11.5443Z" fill="#666666"/>
<path d="M12.255 1.85588C12.4141 1.85588 12.5667 1.91909 12.6792 2.03161C12.7917 2.14414 12.8549 2.29675 12.8549 2.45588C12.8549 2.61501 12.7917 2.76762 12.6792 2.88014C12.5667 2.99266 12.4141 3.05588 12.255 3.05588V9.05588C12.4141 9.05588 12.5667 9.11909 12.6792 9.23161C12.7917 9.34413 12.8549 9.49675 12.8549 9.65588C12.8549 9.81501 12.7917 9.96762 12.6792 10.0801C12.5667 10.1927 12.4141 10.2559 12.255 10.2559H1.45495C1.29582 10.2559 1.14321 10.1927 1.03069 10.0801C0.918164 9.96762 0.85495 9.81501 0.85495 9.65588C0.85495 9.49675 0.918164 9.34413 1.03069 9.23161C1.14321 9.11909 1.29582 9.05588 1.45495 9.05588V3.05588C1.29582 3.05588 1.14321 2.99266 1.03069 2.88014C0.918164 2.76762 0.85495 2.61501 0.85495 2.45588C0.85495 2.29675 0.918164 2.14414 1.03069 2.03161C1.14321 1.91909 1.29582 1.85588 1.45495 1.85588H12.255ZM3.85495 4.25588C3.69582 4.25588 3.54321 4.31909 3.43069 4.43161C3.31816 4.54414 3.25495 4.69675 3.25495 4.85588V9.05588H4.45495V4.85588C4.45495 4.69675 4.39174 4.54414 4.27921 4.43161C4.16669 4.31909 4.01408 4.25588 3.85495 4.25588ZM6.85495 4.25588C6.69582 4.25588 6.54321 4.31909 6.43069 4.43161C6.31816 4.54414 6.25495 4.69675 6.25495 4.85588V9.05588H7.45495V4.85588C7.45495 4.69675 7.39174 4.54414 7.27921 4.43161C7.16669 4.31909 7.01408 4.25588 6.85495 4.25588ZM9.85495 4.25588C9.69582 4.25588 9.54321 4.31909 9.43069 4.43161C9.31816 4.54414 9.25495 4.69675 9.25495 4.85588V9.05588H10.455V4.85588C10.455 4.69675 10.3917 4.54414 10.2792 4.43161C10.1667 4.31909 10.0141 4.25588 9.85495 4.25588ZM10.455 0.0558777C10.6141 0.0558777 10.7667 0.119092 10.8792 0.231614C10.9917 0.344136 11.055 0.496748 11.055 0.655878C11.055 0.815008 10.9917 0.96762 10.8792 1.08014C10.7667 1.19266 10.6141 1.25588 10.455 1.25588H3.25495C3.09582 1.25588 2.94321 1.19266 2.83069 1.08014C2.71816 0.96762 2.65495 0.815008 2.65495 0.655878C2.65495 0.496748 2.71816 0.344136 2.83069 0.231614C2.94321 0.119092 3.09582 0.0558777 3.25495 0.0558777H10.455Z" fill="#666666"/>
</svg>
