<svg width="13" height="14" viewBox="0 0 13 14" fill="none" xmlns="http://www.w3.org/2000/svg">
<path fill-rule="evenodd" clip-rule="evenodd" d="M9.72866 0.912971L7.76066 3.99697H10.8437L11.9277 2.32897C12.1156 2.03723 12.1799 1.6828 12.1065 1.34364C12.033 1.00448 11.8279 0.708377 11.5362 0.520471C11.2444 0.332565 10.89 0.268248 10.5508 0.341668C10.2117 0.415089 9.91557 0.620233 9.72766 0.911971M0.692664 8.68797L0.402664 6.10797C0.387046 5.96814 0.401113 5.82658 0.443944 5.69256C0.486776 5.55853 0.557409 5.43506 0.651226 5.3302C0.745043 5.22534 0.859932 5.14145 0.988385 5.08403C1.11684 5.02661 1.25596 4.99695 1.39666 4.99697H11.8547C11.9955 4.99693 12.1347 5.02662 12.2632 5.0841C12.3917 5.14158 12.5067 5.22556 12.6005 5.33053C12.6943 5.4355 12.765 5.5591 12.8077 5.69325C12.8505 5.8274 12.8644 5.96906 12.8487 6.10897L12.5587 8.68897C12.4869 9.32679 12.2627 9.93797 11.9051 10.4709C11.5474 11.0039 11.0667 11.4429 10.5037 11.751C10.6597 12.058 10.7697 12.394 10.8237 12.751C10.8411 12.8671 10.8332 12.9857 10.8006 13.0986C10.768 13.2114 10.7114 13.3159 10.6347 13.4049C10.5579 13.4938 10.4629 13.5652 10.3561 13.614C10.2493 13.6629 10.1331 13.6881 10.0157 13.688H3.23566C3.11819 13.6881 3.00207 13.6629 2.89524 13.614C2.78841 13.5652 2.69339 13.4938 2.61668 13.4049C2.53996 13.3159 2.48336 13.2114 2.45074 13.0986C2.41811 12.9857 2.41024 12.8671 2.42766 12.751C2.48028 12.4027 2.58831 12.0651 2.74766 11.751C2.18447 11.4428 1.70372 11.0036 1.34604 10.4705C0.988356 9.93735 0.764254 9.32596 0.692664 8.68797ZM7.25066 7.41297C7.25066 7.24721 7.18482 7.08824 7.06761 6.97103C6.9504 6.85382 6.79142 6.78797 6.62566 6.78797C6.4599 6.78797 6.30093 6.85382 6.18372 6.97103C6.06651 7.08824 6.00066 7.24721 6.00066 7.41297V8.71697H4.69666C4.61459 8.71697 4.53332 8.73314 4.45749 8.76455C4.38166 8.79596 4.31276 8.84199 4.25472 8.90003C4.19669 8.95807 4.15065 9.02697 4.11924 9.10279C4.08783 9.17862 4.07166 9.2599 4.07166 9.34197C4.07166 9.42405 4.08783 9.50532 4.11924 9.58115C4.15065 9.65698 4.19669 9.72588 4.25472 9.78391C4.31276 9.84195 4.38166 9.88799 4.45749 9.9194C4.53332 9.9508 4.61459 9.96697 4.69666 9.96697H6.00066V11.272C6.00066 11.4377 6.06651 11.5967 6.18372 11.7139C6.30093 11.8311 6.4599 11.897 6.62566 11.897C6.79142 11.897 6.9504 11.8311 7.06761 11.7139C7.18482 11.5967 7.25066 11.4377 7.25066 11.272V9.96797H8.55466C8.72042 9.96797 8.8794 9.90212 8.99661 9.78491C9.11382 9.6677 9.17966 9.50873 9.17966 9.34297C9.17966 9.17721 9.11382 9.01824 8.99661 8.90103C8.8794 8.78382 8.72042 8.71797 8.55466 8.71797H7.25066V7.41297Z" fill="#6F95FF"/>
</svg>
