<svg width="14" height="12" viewBox="0 0 14 12" fill="none" xmlns="http://www.w3.org/2000/svg">
<path d="M4.30833 10H6.24927V9.33333H4.95531V8.66667H6.24927V6.66667H4.30833V7.33333H5.60229V8H4.30833V10ZM8.83718 10H9.48416V6.66667H8.83718V8H8.1902V6.66667H7.54322V8.66667H8.83718V10ZM12.7191 5.36667V10.6667C12.7191 11.0333 12.5925 11.3473 12.3393 11.6087C12.0861 11.87 11.7814 12.0004 11.4251 12H2.36739C2.01155 12 1.70704 11.8696 1.45386 11.6087C1.20067 11.3478 1.07386 11.0338 1.07343 10.6667V5.36667C0.825423 5.13333 0.634132 4.83333 0.499561 4.46667C0.364989 4.1 0.362185 3.7 0.49115 3.26667L1.17048 1C1.25674 0.711111 1.41051 0.472222 1.63177 0.283333C1.85304 0.0944444 2.10903 0 2.39974 0H11.3928C11.6839 0 11.9373 0.0917778 12.153 0.275333C12.3686 0.458889 12.525 0.700444 12.622 1L13.3013 3.26667C13.4307 3.7 13.4281 4.09444 13.2936 4.45C13.159 4.80555 12.9675 5.11111 12.7191 5.36667ZM8.3196 4.66667C8.61074 4.66667 8.83179 4.564 8.98275 4.35867C9.13372 4.15333 9.19302 3.92267 9.16067 3.66667L8.80483 1.33333H7.54322V3.8C7.54322 4.03333 7.61871 4.23622 7.76967 4.40867C7.92063 4.58111 8.10394 4.66711 8.3196 4.66667ZM5.40819 4.66667C5.6562 4.66667 5.85849 4.58044 6.01506 4.408C6.17163 4.23556 6.2497 4.03289 6.24927 3.8V1.33333H4.98766L4.63182 3.66667C4.58869 3.93333 4.64519 4.16667 4.80133 4.36667C4.95746 4.56667 5.15975 4.66667 5.40819 4.66667ZM2.52913 4.66667C2.72323 4.66667 2.89295 4.59444 3.03831 4.45C3.18366 4.30555 3.27273 4.12222 3.30551 3.9L3.66135 1.33333H2.39974L1.75276 3.56667C1.68806 3.78889 1.723 4.02778 1.85757 4.28333C1.99214 4.53889 2.216 4.66667 2.52913 4.66667ZM11.2634 4.66667C11.5761 4.66667 11.8025 4.53889 11.9427 4.28333C12.0829 4.02778 12.1152 3.78889 12.0397 3.56667L11.3604 1.33333H10.1311L10.487 3.9C10.5193 4.12222 10.6084 4.30555 10.7542 4.45C10.9 4.59444 11.0697 4.66667 11.2634 4.66667Z" fill="#FF8A23"/>
</svg>
