<svg width="12" height="12" viewBox="0 0 12 12" fill="none" xmlns="http://www.w3.org/2000/svg">
<path d="M0.705882 1.23333C0.705882 0.827708 1.02132 0.5 1.41176 0.5H9.17647C10.736 0.5 12 1.81313 12 3.43333C12 5.05354 10.736 6.36667 9.17647 6.36667C9.17647 7.58125 8.22794 8.56667 7.05882 8.56667H2.82353C1.65441 8.56667 0.705882 7.58125 0.705882 6.36667V1.23333ZM10.5882 3.43333C10.5882 2.62438 9.95515 1.96667 9.17647 1.96667V4.9C9.95515 4.9 10.5882 4.24229 10.5882 3.43333ZM0.705882 10.0333H9.17647C9.56691 10.0333 9.88235 10.361 9.88235 10.7667C9.88235 11.1723 9.56691 11.5 9.17647 11.5H0.705882C0.315441 11.5 0 11.1723 0 10.7667C0 10.361 0.315441 10.0333 0.705882 10.0333Z" fill="white"/>
</svg>
