<svg width="12" height="14" viewBox="0 0 12 14" fill="none" xmlns="http://www.w3.org/2000/svg">
<path d="M2.82422 0.495605C3.68095 0.49565 4.40317 0.88447 4.88672 1.42432C5.37013 1.9642 5.64844 2.68395 5.64844 3.45264C5.64835 4.22118 5.37005 4.94019 4.88672 5.47998C4.54268 5.86412 4.07746 6.17031 3.5293 6.31592V12.9136C3.52926 13.24 3.21296 13.5042 2.82324 13.5044C2.43334 13.5044 2.11722 13.2401 2.11719 12.9136V6.31592C1.56958 6.17011 1.10448 5.86387 0.760742 5.47998C0.27746 4.9402 9.08973e-05 4.22114 0 3.45264C0 2.68395 0.277329 1.9642 0.760742 1.42432C1.24432 0.884263 1.96724 0.495605 2.82422 0.495605ZM8.47266 0.495605C8.86237 0.495807 9.17871 0.760944 9.17871 1.0874V12.9136C9.17867 13.24 8.86235 13.5042 8.47266 13.5044C8.08276 13.5044 7.76664 13.2401 7.7666 12.9136V1.0874C7.7666 0.760819 8.08273 0.495605 8.47266 0.495605ZM10.6904 0.495605C11.0802 0.495728 11.3965 0.760895 11.3965 1.0874V12.9136C11.3964 13.2401 11.0802 13.5043 10.6904 13.5044C10.3005 13.5044 9.98442 13.2401 9.98438 12.9136V1.0874C9.98438 0.760819 10.3005 0.495605 10.6904 0.495605Z" fill="white"/>
</svg>
