<svg width="13" height="14" viewBox="0 0 13 14" fill="none" xmlns="http://www.w3.org/2000/svg">
<path fill-rule="evenodd" clip-rule="evenodd" d="M9.33218 0.91294L7.36418 3.99694H10.4472L11.5312 2.32894C11.7191 2.0372 11.7834 1.68277 11.71 1.34361C11.6366 1.00445 11.4314 0.708346 11.1397 0.52044C10.8479 0.332534 10.4935 0.268217 10.1543 0.341638C9.81519 0.415058 9.51909 0.620202 9.33118 0.91194M0.29618 8.68794L0.00617969 6.10794C-0.0094383 5.96811 0.00462821 5.82655 0.0474599 5.69253C0.0902916 5.5585 0.160924 5.43502 0.254741 5.33016C0.348558 5.22531 0.463448 5.14142 0.5919 5.084C0.720353 5.02658 0.859477 4.99691 1.00018 4.99694H11.4582C11.599 4.9969 11.7382 5.02659 11.8667 5.08407C11.9953 5.14155 12.1102 5.22553 12.204 5.3305C12.2979 5.43547 12.3685 5.55907 12.4112 5.69322C12.454 5.82736 12.4679 5.96903 12.4522 6.10894L12.1622 8.68894C12.0904 9.32676 11.8663 9.93794 11.5086 10.4709C11.1509 11.0038 10.6702 11.4429 10.1072 11.7509C10.2632 12.0579 10.3732 12.3939 10.4272 12.7509C10.4446 12.8671 10.4367 12.9857 10.4041 13.0985C10.3715 13.2114 10.3149 13.3159 10.2382 13.4048C10.1615 13.4938 10.0664 13.5651 9.9596 13.614C9.85277 13.6629 9.73665 13.6881 9.61918 13.6879H2.83918C2.72171 13.6881 2.60559 13.6629 2.49876 13.614C2.39193 13.5651 2.29691 13.4938 2.22019 13.4048C2.14347 13.3159 2.08687 13.2114 2.05425 13.0985C2.02163 12.9857 2.01376 12.8671 2.03118 12.7509C2.0838 12.4027 2.19183 12.0651 2.35118 11.7509C1.78798 11.4428 1.30723 11.0036 0.949552 10.4704C0.591872 9.93732 0.36777 9.32593 0.29618 8.68794ZM6.85418 7.41294C6.85418 7.24718 6.78833 7.08821 6.67112 6.971C6.55391 6.85379 6.39494 6.78794 6.22918 6.78794C6.06342 6.78794 5.90445 6.85379 5.78724 6.971C5.67003 7.08821 5.60418 7.24718 5.60418 7.41294V8.71694H4.30018C4.2181 8.71694 4.13683 8.73311 4.061 8.76452C3.98517 8.79593 3.91627 8.84196 3.85824 8.9C3.8002 8.95804 3.75416 9.02693 3.72275 9.10276C3.69135 9.17859 3.67518 9.25986 3.67518 9.34194C3.67518 9.42402 3.69135 9.50529 3.72275 9.58112C3.75416 9.65695 3.8002 9.72585 3.85824 9.78388C3.91627 9.84192 3.98517 9.88796 4.061 9.91936C4.13683 9.95077 4.2181 9.96694 4.30018 9.96694H5.60418V11.2719C5.60418 11.4377 5.67003 11.5967 5.78724 11.7139C5.90445 11.8311 6.06342 11.8969 6.22918 11.8969C6.39494 11.8969 6.55391 11.8311 6.67112 11.7139C6.78833 11.5967 6.85418 11.4377 6.85418 11.2719V9.96794H8.15818C8.32394 9.96794 8.48291 9.90209 8.60012 9.78488C8.71733 9.66767 8.78318 9.5087 8.78318 9.34294C8.78318 9.17718 8.71733 9.01821 8.60012 8.901C8.48291 8.78379 8.32394 8.71794 8.15818 8.71794H6.85418V7.41294Z" fill="white"/>
</svg>
