<svg width="13" height="12" viewBox="0 0 13 12" fill="none" xmlns="http://www.w3.org/2000/svg">
<path d="M3.91184 10H5.85278V9.33333H4.55882V8.66667H5.85278V6.66667H3.91184V7.33333H5.2058V8H3.91184V10ZM8.4407 10H9.08768V6.66667H8.4407V8H7.79372V6.66667H7.14674V8.66667H8.4407V10ZM12.3226 5.36667V10.6667C12.3226 11.0333 12.196 11.3473 11.9428 11.6087C11.6896 11.87 11.3849 12.0004 11.0286 12H1.97091C1.61507 12 1.31056 11.8696 1.05737 11.6087C0.804186 11.3478 0.677378 11.0338 0.676947 10.6667V5.36667C0.428938 5.13333 0.237648 4.83333 0.103076 4.46667C-0.0314955 4.1 -0.0342991 3.7 0.0946655 3.26667L0.773994 1C0.860258 0.711111 1.01402 0.472222 1.23529 0.283333C1.45656 0.0944444 1.71255 0 2.00325 0H10.9963C11.2874 0 11.5408 0.0917778 11.7565 0.275333C11.9721 0.458889 12.1285 0.700444 12.2255 1L12.9049 3.26667C13.0343 3.7 13.0317 4.09444 12.8971 4.45C12.7625 4.80555 12.571 5.11111 12.3226 5.36667ZM7.92312 4.66667C8.21426 4.66667 8.43531 4.564 8.58627 4.35867C8.73723 4.15333 8.79654 3.92267 8.76419 3.66667L8.40835 1.33333H7.14674V3.8C7.14674 4.03333 7.22222 4.23622 7.37318 4.40867C7.52415 4.58111 7.70746 4.66711 7.92312 4.66667ZM5.01171 4.66667C5.25972 4.66667 5.46201 4.58044 5.61858 4.408C5.77514 4.23556 5.85321 4.03289 5.85278 3.8V1.33333H4.59117L4.23533 3.66667C4.1922 3.93333 4.2487 4.16667 4.40484 4.36667C4.56098 4.56667 4.76327 4.66667 5.01171 4.66667ZM2.13265 4.66667C2.32674 4.66667 2.49647 4.59444 2.64182 4.45C2.78718 4.30555 2.87625 4.12222 2.90903 3.9L3.26486 1.33333H2.00325L1.35628 3.56667C1.29158 3.78889 1.32651 4.02778 1.46109 4.28333C1.59566 4.53889 1.81951 4.66667 2.13265 4.66667ZM10.8669 4.66667C11.1796 4.66667 11.406 4.53889 11.5462 4.28333C11.6864 4.02778 11.7187 3.78889 11.6432 3.56667L10.9639 1.33333H9.73466L10.0905 3.9C10.1228 4.12222 10.2119 4.30555 10.3577 4.45C10.5035 4.59444 10.6732 4.66667 10.8669 4.66667Z" fill="white"/>
</svg>
