<svg width="34" height="34" viewBox="0 0 34 34" fill="none" xmlns="http://www.w3.org/2000/svg">
<rect width="34" height="34" rx="10" fill="#F4F4F4"/>
<path d="M16.2428 6.22708C16.7021 5.92398 17.2979 5.92398 17.7572 6.22708L28.7935 13.5102C29.9317 14.2613 29.4 16.0329 28.0364 16.0329H5.96362C4.59998 16.0329 4.06825 14.2613 5.20645 13.5102L16.2428 6.22708Z" fill="#DDDDE4"/>
<path d="M7.48455 16.0332H26.5185V25.7085C26.5185 26.9741 25.4926 28.0002 24.2271 28.0002H9.77592C8.51043 28.0002 7.48455 26.9741 7.48455 25.7085V16.0332Z" fill="#BBBCC4"/>
<path d="M14.711 22.1613C14.7148 20.8283 15.7341 19.7498 16.9901 19.7498C18.2515 19.7498 19.273 20.8372 19.2692 22.176L19.2555 27.9999H14.6687L14.711 22.1613Z" fill="#DDDDE4"/>
</svg>
