<svg width="35" height="34" viewBox="0 0 35 34" fill="none" xmlns="http://www.w3.org/2000/svg">
<rect x="0.97641" width="34" height="34" rx="10" fill="#F4F4F4"/>
<path d="M17.2192 6.22714C17.6785 5.92404 18.2743 5.92404 18.7336 6.22714L29.7699 13.5103C30.9081 14.2614 30.3764 16.033 29.0128 16.033H6.94003C5.57639 16.033 5.04466 14.2614 6.18285 13.5103L17.2192 6.22714Z" fill="#81DDFF"/>
<path d="M8.46096 16.0333H27.4949V25.7085C27.4949 26.9742 26.469 28.0002 25.2035 28.0002H10.7523C9.48684 28.0002 8.46096 26.9742 8.46096 25.7085V16.0333Z" fill="#13C0FF"/>
<path d="M15.6874 22.1614C15.6912 20.8283 16.7105 19.7498 17.9665 19.7498C19.2279 19.7498 20.2494 20.8373 20.2456 22.1761L20.2319 27.9999H15.6451L15.6874 22.1614Z" fill="#81DDFF"/>
</svg>
