<svg width="34" height="34" viewBox="0 0 34 34" fill="none" xmlns="http://www.w3.org/2000/svg">
<rect width="34" height="34" rx="10" fill="#F4F4F4"/>
<path opacity="0.5" d="M6.84082 9.41968C7.03961 9.33121 7.30908 9.30841 7.7998 9.41089C8.04801 9.46273 8.33146 9.54168 8.66602 9.64526L9.83887 10.0281C11.12 10.4543 11.8939 10.7182 12.667 10.7107V27.5935C12.0264 27.5826 11.2612 27.3378 9.76758 26.8396L8.2793 26.3435C7.63586 26.129 7.19288 25.9803 6.86328 25.8269C6.54575 25.6791 6.38013 25.5475 6.26758 25.3914C6.15495 25.2349 6.08177 25.0356 6.04199 24.6873C6.00077 24.326 6 23.8592 6 23.1814V12.7957C6 11.8415 6.00095 11.1694 6.05957 10.6658C6.11745 10.1688 6.22407 9.92017 6.37109 9.75854C6.50264 9.61476 6.66277 9.49987 6.84082 9.42065V9.41968ZM21.333 6.40503C21.9737 6.4159 22.7387 6.66261 24.2324 7.16089L25.7207 7.65601V7.65698C26.3641 7.87146 26.8071 8.01924 27.1367 8.17261C27.4546 8.32052 27.6198 8.45281 27.7324 8.60913C27.8451 8.76559 27.9182 8.96473 27.958 9.31323C27.9992 9.67445 28 10.1414 28 10.8191V21.2029C28 22.157 27.999 22.8291 27.9404 23.3328C27.8826 23.8298 27.7759 24.0784 27.6289 24.24C27.4974 24.3838 27.3372 24.4996 27.1592 24.5789C26.9604 24.6673 26.691 24.6901 26.2002 24.5876C25.7038 24.484 25.066 24.2721 24.1611 23.9705C22.8801 23.5442 22.1061 23.2803 21.333 23.2878V6.40503Z" fill="#13C0FF" stroke="#13C0FF"/>
<mask id="path-3-inside-1_240_172" fill="white">
<path d="M13.4817 10.1122C13.377 10.1352 13.2718 10.1553 13.1661 10.1723V28.0612C14.0222 27.9283 14.7876 27.4185 16.2865 26.4192L18.0524 25.2411C19.2484 24.4438 19.8464 24.0451 20.5185 23.8867C20.6207 23.8611 20.7255 23.8411 20.8328 23.8266V5.93774C19.9767 6.06936 19.2113 6.58047 17.7125 7.57841L15.9466 8.75652C14.7506 9.55386 14.1526 9.95252 13.4805 10.111"/>
</mask>
<path d="M13.4817 10.1122C13.377 10.1352 13.2718 10.1553 13.1661 10.1723V28.0612C14.0222 27.9283 14.7876 27.4185 16.2865 26.4192L18.0524 25.2411C19.2484 24.4438 19.8464 24.0451 20.5185 23.8867C20.6207 23.8611 20.7255 23.8411 20.8328 23.8266V5.93774C19.9767 6.06936 19.2113 6.58047 17.7125 7.57841L15.9466 8.75652C14.7506 9.55386 14.1526 9.95252 13.4805 10.111" fill="#13C0FF"/>
<path d="M24.003 24.4451L23.846 24.9198L24.1705 25.0271L24.3275 24.5524L24.4845 24.0777L24.16 23.9704L24.003 24.4451ZM13.1661 10.1723L13.0069 9.18506L12.1661 9.32067V10.1723H13.1661ZM13.1661 28.0612H12.1661V29.2284L13.3195 29.0494L13.1661 28.0612ZM16.2865 26.4192L16.8412 27.2513L16.8414 27.2511L16.2865 26.4192ZM18.0524 25.2411L17.4977 24.4091L17.4974 24.4093L18.0524 25.2411ZM20.5185 23.8867L20.7479 24.8601L20.761 24.8568L20.5185 23.8867ZM20.8328 23.8266L20.9665 24.8177L21.8328 24.7008V23.8266H20.8328ZM20.8328 5.93774H21.8328V4.77227L20.6808 4.94936L20.8328 5.93774ZM17.7125 7.57841L17.1583 6.74603L17.1575 6.74655L17.7125 7.57841ZM15.9466 8.75652L16.5013 9.58857L16.5016 9.58839L15.9466 8.75652ZM13.4817 10.1122L13.2673 9.1355C13.1808 9.1545 13.094 9.17101 13.0069 9.18506L13.1661 10.1723L13.3254 11.1595C13.4495 11.1395 13.5731 11.116 13.6961 11.089L13.4817 10.1122ZM13.1661 10.1723H12.1661V28.0612H13.1661H14.1661V10.1723H13.1661ZM13.1661 28.0612L13.3195 29.0494C14.4449 28.8747 15.4208 28.1982 16.8412 27.2513L16.2865 26.4192L15.7318 25.5872C14.1545 26.6387 13.5996 26.9819 13.0127 27.073L13.1661 28.0612ZM16.2865 26.4192L16.8414 27.2511L18.6073 26.073L18.0524 25.2411L17.4974 24.4093L15.7315 25.5874L16.2865 26.4192ZM18.0524 25.2411L18.6071 26.0732C19.8654 25.2343 20.2923 24.9674 20.7479 24.86L20.5185 23.8867L20.289 22.9134C19.4004 23.1228 18.6314 23.6533 17.4977 24.4091L18.0524 25.2411ZM20.5185 23.8867L20.761 24.8568C20.8264 24.8405 20.8948 24.8273 20.9665 24.8177L20.8328 23.8266L20.6991 22.8356C20.5561 22.8549 20.415 22.8818 20.2759 22.9165L20.5185 23.8867ZM20.8328 23.8266H21.8328V5.93774H20.8328H19.8328V23.8266H20.8328ZM20.8328 5.93774L20.6808 4.94936C19.5544 5.12252 18.5771 5.80137 17.1583 6.74603L17.7125 7.57841L18.2667 8.41079C19.8455 7.35957 20.3989 7.01619 20.9847 6.92613L20.8328 5.93774ZM17.7125 7.57841L17.1575 6.74655L15.3916 7.92466L15.9466 8.75652L16.5016 9.58839L18.2674 8.41028L17.7125 7.57841ZM15.9466 8.75652L15.3919 7.92447C14.1336 8.76334 13.7067 9.03023 13.251 9.13765L13.4805 10.111L13.7099 11.0843C14.5985 10.8748 15.3676 10.3444 16.5013 9.58857L15.9466 8.75652Z" fill="#13C0FF" mask="url(#path-3-inside-1_240_172)"/>
</svg>
