<svg width="34" height="34" viewBox="0 0 34 34" fill="none" xmlns="http://www.w3.org/2000/svg">
<rect width="34" height="34" rx="10" fill="#F4F4F4"/>
<circle cx="17" cy="17" r="11" fill="#13C0FF"/>
<path d="M13.7 23.6H19.75C20.0617 23.6 20.3506 23.5219 20.6168 23.3657C20.883 23.2095 21.0707 22.9943 21.18 22.72L23.49 17.33C23.5267 17.2383 23.5542 17.1467 23.5725 17.055C23.5908 16.9633 23.6 16.8717 23.6 16.78V15.9C23.6 15.5883 23.4944 15.3269 23.2832 15.1157C23.072 14.9045 22.8109 14.7993 22.5 14.8H17.44L18.1 11.06C18.1367 10.8767 18.1275 10.7025 18.0725 10.5375C18.0175 10.3725 17.9258 10.2258 17.7975 10.0975L17 9.3L11.94 14.8C11.7933 14.9467 11.6833 15.1117 11.61 15.295C11.5367 15.4783 11.5 15.68 11.5 15.9V21.4C11.5 22.005 11.7156 22.5231 12.1468 22.9543C12.578 23.3855 13.0957 23.6007 13.7 23.6ZM17 28C15.4783 28 14.0483 27.7111 12.71 27.1332C11.3717 26.5553 10.2075 25.7718 9.2175 24.7825C8.2275 23.7932 7.44393 22.6291 6.8668 21.29C6.28967 19.9509 6.00073 18.5209 6 17C5.99927 15.4791 6.2882 14.0491 6.8668 12.71C7.4454 11.3709 8.22897 10.2068 9.2175 9.2175C10.206 8.22823 11.3702 7.44467 12.71 6.8668C14.0498 6.28893 15.4798 6 17 6C18.5202 6 19.9502 6.28893 21.29 6.8668C22.6298 7.44467 23.794 8.22823 24.7825 9.2175C25.771 10.2068 26.555 11.3709 27.1343 12.71C27.7136 14.0491 28.0022 15.4791 28 17C27.9978 18.5209 27.7089 19.9509 27.1332 21.29C26.5575 22.6291 25.774 23.7932 24.7825 24.7825C23.791 25.7718 22.6269 26.5557 21.29 27.1343C19.9531 27.7129 18.5231 28.0015 17 28Z" fill="#81DDFF"/>
</svg>
