<svg width="12" height="12" viewBox="0 0 12 12" fill="none" xmlns="http://www.w3.org/2000/svg">
<path d="M6.35476 11.6109L6.34816 11.6121L6.30556 11.6331L6.29356 11.6355L6.28516 11.6331L6.24256 11.6121C6.23616 11.6101 6.23136 11.6111 6.22816 11.6151L6.22576 11.6211L6.21556 11.8779L6.21856 11.8899L6.22456 11.8977L6.28696 11.9421L6.29596 11.9445L6.30316 11.9421L6.36556 11.8977L6.37276 11.8881L6.37516 11.8779L6.36496 11.6217C6.36336 11.6153 6.35996 11.6117 6.35476 11.6109ZM6.51376 11.5431L6.50596 11.5443L6.39496 11.6001L6.38896 11.6061L6.38716 11.6127L6.39796 11.8707L6.40096 11.8779L6.40576 11.8821L6.52636 11.9379C6.53396 11.9399 6.53976 11.9383 6.54376 11.9331L6.54616 11.9247L6.52576 11.5563C6.52376 11.5491 6.51976 11.5447 6.51376 11.5431ZM6.08476 11.5443C6.08211 11.5427 6.07895 11.5422 6.07593 11.5429C6.07291 11.5436 6.07027 11.5454 6.06856 11.5479L6.06496 11.5563L6.04456 11.9247C6.04496 11.9319 6.04836 11.9367 6.05476 11.9391L6.06376 11.9379L6.18436 11.8821L6.19036 11.8773L6.19276 11.8707L6.20296 11.6127L6.20116 11.6055L6.19516 11.5995L6.08476 11.5443Z" fill="#1DC3FF"/>
<path d="M11.4 1.85591C11.5591 1.85591 11.7117 1.91912 11.8243 2.03164C11.9368 2.14417 12 2.29678 12 2.45591C12 2.61504 11.9368 2.76765 11.8243 2.88017C11.7117 2.99269 11.5591 3.05591 11.4 3.05591V9.05591C11.5591 9.05591 11.7117 9.11912 11.8243 9.23164C11.9368 9.34416 12 9.49678 12 9.65591C12 9.81504 11.9368 9.96765 11.8243 10.0802C11.7117 10.1927 11.5591 10.2559 11.4 10.2559H0.6C0.44087 10.2559 0.288258 10.1927 0.175736 10.0802C0.0632141 9.96765 0 9.81504 0 9.65591C0 9.49678 0.0632141 9.34416 0.175736 9.23164C0.288258 9.11912 0.44087 9.05591 0.6 9.05591V3.05591C0.44087 3.05591 0.288258 2.99269 0.175736 2.88017C0.0632141 2.76765 0 2.61504 0 2.45591C0 2.29678 0.0632141 2.14417 0.175736 2.03164C0.288258 1.91912 0.44087 1.85591 0.6 1.85591H11.4ZM3 4.25591C2.84087 4.25591 2.68826 4.31912 2.57574 4.43164C2.46321 4.54417 2.4 4.69678 2.4 4.85591V9.05591H3.6V4.85591C3.6 4.69678 3.53679 4.54417 3.42426 4.43164C3.31174 4.31912 3.15913 4.25591 3 4.25591ZM6 4.25591C5.84087 4.25591 5.68826 4.31912 5.57574 4.43164C5.46321 4.54417 5.4 4.69678 5.4 4.85591V9.05591H6.6V4.85591C6.6 4.69678 6.53679 4.54417 6.42426 4.43164C6.31174 4.31912 6.15913 4.25591 6 4.25591ZM9 4.25591C8.84087 4.25591 8.68826 4.31912 8.57574 4.43164C8.46321 4.54417 8.4 4.69678 8.4 4.85591V9.05591H9.6V4.85591C9.6 4.69678 9.53679 4.54417 9.42426 4.43164C9.31174 4.31912 9.15913 4.25591 9 4.25591ZM9.6 0.0559082C9.75913 0.0559082 9.91174 0.119122 10.0243 0.231644C10.1368 0.344166 10.2 0.496778 10.2 0.655908C10.2 0.815038 10.1368 0.96765 10.0243 1.08017C9.91174 1.19269 9.75913 1.25591 9.6 1.25591H2.4C2.24087 1.25591 2.08826 1.19269 1.97574 1.08017C1.86321 0.96765 1.8 0.815038 1.8 0.655908C1.8 0.496778 1.86321 0.344166 1.97574 0.231644C2.08826 0.119122 2.24087 0.0559082 2.4 0.0559082H9.6Z" fill="#1DC3FF"/>
</svg>
