<svg width="57" height="34" viewBox="0 0 57 34" fill="none" xmlns="http://www.w3.org/2000/svg">
<rect x="0.5" y="0.5" width="55.4585" height="33" rx="16.5" fill="white"/>
<rect x="0.5" y="0.5" width="55.4585" height="33" rx="16.5" stroke="#1DC3FF"/>
<path fill-rule="evenodd" clip-rule="evenodd" d="M19.3322 10.9129L17.3642 13.9969H20.4472L21.5312 12.3289C21.7191 12.0372 21.7834 11.6828 21.71 11.3436C21.6366 11.0044 21.4314 10.7083 21.1397 10.5204C20.8479 10.3325 20.4935 10.2682 20.1543 10.3416C19.8152 10.4151 19.5191 10.6202 19.3312 10.9119M10.2962 18.6879L10.0062 16.1079C9.99056 15.9681 10.0046 15.8266 10.0475 15.6925C10.0903 15.5585 10.1609 15.435 10.2547 15.3302C10.3486 15.2253 10.4634 15.1414 10.5919 15.084C10.7204 15.0266 10.8595 14.9969 11.0002 14.9969H21.4582C21.599 14.9969 21.7382 15.0266 21.8667 15.0841C21.9953 15.1416 22.1102 15.2255 22.204 15.3305C22.2979 15.4355 22.3685 15.5591 22.4112 15.6932C22.454 15.8274 22.4679 15.969 22.4522 16.1089L22.1622 18.6889C22.0904 19.3268 21.8663 19.9379 21.5086 20.4709C21.1509 21.0038 20.6702 21.4429 20.1072 21.7509C20.2632 22.0579 20.3732 22.3939 20.4272 22.7509C20.4446 22.8671 20.4367 22.9857 20.4041 23.0985C20.3715 23.2114 20.3149 23.3159 20.2382 23.4048C20.1615 23.4938 20.0664 23.5651 19.9596 23.614C19.8528 23.6629 19.7367 23.6881 19.6192 23.6879H12.8392C12.7217 23.6881 12.6056 23.6629 12.4988 23.614C12.3919 23.5651 12.2969 23.4938 12.2202 23.4048C12.1435 23.3159 12.0869 23.2114 12.0543 23.0985C12.0216 22.9857 12.0138 22.8671 12.0312 22.7509C12.0838 22.4027 12.1918 22.0651 12.3512 21.7509C11.788 21.4428 11.3072 21.0036 10.9496 20.4704C10.5919 19.9373 10.3678 19.3259 10.2962 18.6879ZM16.8542 17.4129C16.8542 17.2472 16.7883 17.0882 16.6711 16.971C16.5539 16.8538 16.3949 16.7879 16.2292 16.7879C16.0634 16.7879 15.9044 16.8538 15.7872 16.971C15.67 17.0882 15.6042 17.2472 15.6042 17.4129V18.7169H14.3002C14.2181 18.7169 14.1368 18.7331 14.061 18.7645C13.9852 18.7959 13.9163 18.842 13.8582 18.9C13.8002 18.958 13.7542 19.0269 13.7228 19.1028C13.6913 19.1786 13.6752 19.2599 13.6752 19.3419C13.6752 19.424 13.6913 19.5053 13.7228 19.5811C13.7542 19.6569 13.8002 19.7258 13.8582 19.7839C13.9163 19.8419 13.9852 19.888 14.061 19.9194C14.1368 19.9508 14.2181 19.9669 14.3002 19.9669H15.6042V21.2719C15.6042 21.4377 15.67 21.5967 15.7872 21.7139C15.9044 21.8311 16.0634 21.8969 16.2292 21.8969C16.3949 21.8969 16.5539 21.8311 16.6711 21.7139C16.7883 21.5967 16.8542 21.4377 16.8542 21.2719V19.9679H18.1582C18.3239 19.9679 18.4829 19.9021 18.6001 19.7849C18.7173 19.6677 18.7832 19.5087 18.7832 19.3429C18.7832 19.1772 18.7173 19.0182 18.6001 18.901C18.4829 18.7838 18.3239 18.7179 18.1582 18.7179H16.8542V17.4129Z" fill="#1DC3FF"/>
<path d="M35.8296 13.1484V13.8984H34.2827V15.3633H35.8296V16.1484H34.2827V17.7305H33.3687V11.5312H34.2827V13.1484H35.8296ZM34.2827 18.2109V21.9492H33.3687V18.9727H27.4624V18.2109H34.2827ZM29.0679 12.1641C30.6499 12.1523 31.7983 13.1719 31.8101 14.6133C31.7983 16.0781 30.6499 17.0859 29.0679 17.0859C27.4858 17.0859 26.3257 16.0781 26.3374 14.6133C26.3257 13.1719 27.4858 12.1523 29.0679 12.1641ZM29.0679 12.9492C28.0132 12.9492 27.228 13.6289 27.2397 14.6133C27.228 15.6094 28.0132 16.3008 29.0679 16.2891C30.1343 16.3008 30.9077 15.6094 30.9077 14.6133C30.9077 13.6289 30.1343 12.9492 29.0679 12.9492ZM44.7944 12.0469V12.7969C44.7944 13.5762 44.7944 14.5078 44.5366 15.7617H46.0483V16.5117H41.7124V18.4336H44.8647V21.9492H43.939V19.1953H37.4937V18.4336H40.7983V16.5117H36.5093V15.7617H43.6108C43.8804 14.4844 43.8804 13.5762 43.8804 12.7969H37.7163V12.0469H44.7944Z" fill="black"/>
</svg>
