<svg width="325" height="325" viewBox="0 0 325 325" fill="none" xmlns="http://www.w3.org/2000/svg">
<rect width="325" height="325" fill="white"/>
<rect x="176" y="235" width="12" height="38" fill="url(#paint0_linear_481_1513)"/>
<path d="M173.517 269C179.569 269 184.276 270.332 187.638 271.655C190.229 272.676 191 273.641 191 273.641L188.31 277.604C185.172 279.805 177.551 284.34 172.172 284.868C166.793 285.397 162.31 284.208 160.741 283.547C151.596 284.604 148.861 282.667 148.637 281.566C143.93 278.924 145.275 272.981 154.689 270.999C162.22 269.414 167.465 269 173.517 269Z" fill="url(#paint1_linear_481_1513)"/>
<path d="M194 271.579V236.684L206 236V275L194 271.579Z" fill="url(#paint2_linear_481_1513)"/>
<path d="M183.871 270.977C191.925 268.245 197.964 268.928 199.978 269.611C210.713 273.025 208.033 280.537 206.691 281.903C206.02 283.268 200.651 286 196.625 286C193.404 286 191.703 285.545 191.256 285.317C190.138 285.545 186.961 286 183.203 286C179.445 286 175.819 284.634 174.476 283.951C173.805 283.496 172.53 282.312 173.134 279.854C173.738 277.396 173.805 274.391 183.871 270.977Z" fill="url(#paint3_linear_481_1513)"/>
<path d="M137.99 205.64C146.744 198.946 151.077 196.844 152.15 196.629L162.448 201.778C164.164 203.709 166.181 210.146 160.517 220.444C155.368 232.673 137.346 235.891 133.484 234.604C131.042 233.79 131.339 231.386 131.553 230.742C125.117 230.098 127.048 228.168 123.83 223.018C120.612 217.869 127.048 214.007 137.99 205.64Z" fill="url(#paint4_linear_481_1513)"/>
<path d="M221.663 187.618C217.029 187.103 215.441 191.265 215.226 193.411L224.881 226.88C227.241 224.306 232.218 216.968 233.248 208.215C234.535 197.273 227.455 188.262 221.663 187.618Z" fill="url(#paint5_linear_481_1513)"/>
<path d="M201.066 244.258C191.798 244.773 185.19 244.044 183.044 243.615L195.917 218.513L221.019 196.629C230.674 210.789 230.03 219.157 226.812 228.811C223.594 238.466 212.652 243.615 201.066 244.258Z" fill="url(#paint6_linear_481_1513)"/>
<path d="M174.033 165.735C176.608 159.556 175.535 152.862 174.677 150.287L201.066 149C197.977 151.575 198.492 166.378 199.135 173.458L183.688 177.964L171.459 177.32L170.818 172.832C170.816 172.828 170.815 172.822 170.815 172.815L170.818 172.832C170.864 172.943 171.551 171.692 174.033 165.735Z" fill="url(#paint7_linear_481_1513)"/>
<path d="M149.578 195.342C151.122 193.282 163.523 179.895 169.53 173.458L170.172 177.964L159.874 208.215C157.3 205.855 151.895 200.877 150.865 199.847C149.578 198.56 147.647 197.917 149.578 195.342Z" fill="url(#paint8_linear_481_1513)"/>
<path d="M217.801 192.124C213.167 186.975 205.143 177.964 201.71 174.102L193.986 215.938C197.419 219.157 202.869 225.979 204.928 224.949C207.503 223.662 217.157 218.513 220.376 212.72C223.594 206.927 223.594 198.56 217.801 192.124Z" fill="url(#paint9_linear_481_1513)"/>
<path d="M161.16 194.055C163.734 185.816 168.24 178.607 170.171 176.033L190.125 179.895C191.669 182.984 189.695 194.055 189.481 199.204L183.688 229.455L161.16 221.731C159.229 216.582 157.942 204.353 161.16 194.055Z" fill="url(#paint10_linear_481_1513)"/>
<path d="M212.651 191.48C210.592 182.212 202.782 174.316 199.135 171.527L188.837 180.538C189.481 181.826 190.382 185.559 188.837 190.193C186.906 195.986 183.688 197.273 183.044 202.422C182.529 206.541 188.837 214.866 192.055 218.513C197.204 219.8 208.017 221.602 210.077 218.513C212.651 214.651 215.226 203.066 212.651 191.48Z" fill="url(#paint11_linear_481_1513)"/>
<path d="M185.619 201.778C189.481 198.56 192.055 196.629 199.779 197.273C209.434 201.135 210.721 207.571 209.434 215.295C208.146 223.018 200.423 233.96 195.274 238.466C190.124 242.971 184.332 245.546 181.114 244.902C178.539 244.387 177.895 242.542 177.895 241.684C176.823 242.113 174.291 242.585 172.746 241.04C170.172 238.466 171.784 235.644 171.999 235C171.57 235.215 167.277 235.842 165.023 232.5C162.999 229.5 164.593 227.095 165.023 225.593C163.092 224.306 162.448 222.375 162.448 220.444C162.448 218.513 164.379 213.364 169.528 211.433C174.677 209.502 181.757 204.997 185.619 201.778Z" fill="url(#paint12_linear_481_1513)"/>
<g filter="url(#filter0_iiii_481_1513)">
<path d="M172.119 170.24C171.904 171.742 172.248 174.874 175.337 175.389C181.131 177.32 189.496 174.746 192.071 173.458C194.13 172.428 198.078 170.24 199.151 168.953C200.867 171.098 200.061 176.151 194.645 178.607C187.55 181.826 179.826 182.469 175.336 181.826C171.498 181.275 167.612 179.895 168.256 175.389C168.771 171.785 171.046 170.455 172.119 170.24Z" fill="url(#paint13_linear_481_1513)"/>
</g>
<path d="M203.956 9.66854C197.272 6.32695 186.523 21.3702 181.747 29.7285L196.076 29.0118C201.329 24.2357 211.121 13.2502 203.956 9.66854Z" fill="url(#paint14_linear_481_1513)"/>
<path d="M196.792 8.47637C190.108 5.13478 179.359 20.178 174.583 28.5363L188.911 27.8196C194.165 23.0435 203.956 12.058 196.792 8.47637Z" fill="url(#paint15_linear_481_1513)"/>
<g filter="url(#filter1_iiii_481_1513)">
<path d="M151.657 37.8493C166.559 26.9596 184.613 27.1029 191.777 28.5358C196.553 29.0134 209.544 33.2643 223.3 46.4465C240.494 62.9244 240.494 105.194 239.778 115.94C239.061 126.686 229.031 142.448 214.703 148.179C200.374 153.911 165.707 157.004 147.359 147.463C129.448 138.149 123 125.254 123 115.94C123 106.626 128.731 93.0143 129.448 83.7008C130.164 74.3872 133.03 51.4614 151.657 37.8493Z" fill="url(#paint16_linear_481_1513)"/>
</g>
<g filter="url(#filter2_ii_481_1513)">
<path d="M167.419 108.776C162.833 107.629 154.523 114.029 150.941 117.373C160.732 122.388 181.317 131.272 185.329 129.552C190.344 127.403 191.061 125.254 190.344 123.104C189.628 120.955 183.896 120.239 179.598 117.373C175.299 114.507 173.15 110.209 167.419 108.776Z" fill="url(#paint17_linear_481_1513)"/>
</g>
<g filter="url(#filter3_i_481_1513)">
<path d="M166.952 137.847C160.373 136.713 156.933 130.667 155.956 128.119L187.478 128.814C182.347 135.763 175.016 139.237 166.952 137.847Z" fill="url(#paint18_linear_481_1513)"/>
</g>
<g filter="url(#filter4_iiii_481_1513)">
<path d="M150.224 117.373C145.926 117.373 140.194 120.239 140.194 123.821C140.194 126.686 145.926 128.119 150.224 128.836C154.464 129.542 182.464 131.701 187.479 129.552C191.491 127.833 191.061 124.537 190.344 123.104C189.628 123.821 187.335 125.54 183.896 126.686C179.598 128.119 168.851 123.104 165.986 120.955C163.12 118.806 154.523 117.373 150.224 117.373Z" fill="url(#paint19_linear_481_1513)"/>
</g>
<g filter="url(#filter5_iiii_481_1513)">
<path d="M158.821 101.611C158.821 106.755 155.504 110.925 151.316 110.925C147.128 110.925 144.493 106.755 144.493 101.611C144.493 96.4677 147.393 92.2979 151.316 92.2979C155.239 92.2979 158.821 96.4677 158.821 101.611Z" fill="url(#paint20_radial_481_1513)"/>
</g>
<g filter="url(#filter6_iiii_481_1513)">
<path d="M198.225 101.611C198.225 106.755 194.643 110.925 190.003 110.925C185.363 110.925 183.18 106.755 183.18 101.611C183.18 96.4677 185.906 92.2979 190.003 92.2979C194.1 92.2979 198.225 96.4677 198.225 101.611Z" fill="url(#paint21_radial_481_1513)"/>
</g>
<g filter="url(#filter7_iii_481_1513)">
<path d="M139.478 80.1199C139.478 79.6101 139.567 78.5693 140.277 77.3606C140.985 76.1536 142.219 74.9385 144.241 73.9184C145.992 73.035 147.884 72.8174 149.387 72.9095C150.144 72.9559 150.87 73.0843 151.493 73.2887C151.804 73.3906 152.132 73.5255 152.439 73.7057C152.719 73.8698 153.132 74.1573 153.445 74.6278C154.104 75.6155 153.837 76.9498 152.849 77.6082C152.001 78.1739 150.898 78.0548 150.186 77.3844C150.176 77.3808 150.165 77.3771 150.153 77.3732C149.94 77.3033 149.585 77.2279 149.124 77.1997C148.191 77.1425 147.097 77.2916 146.178 77.7552C144.768 78.4662 144.209 79.1542 143.985 79.5364C143.868 79.7354 143.818 79.8899 143.796 79.9828C143.785 80.0306 143.78 80.0663 143.778 80.0878C143.776 80.1083 143.776 80.1199 143.776 80.1199C143.776 81.3069 142.814 82.2692 141.627 82.2692C140.44 82.2692 139.478 81.3069 139.478 80.1199Z" fill="url(#paint22_linear_481_1513)"/>
</g>
<g filter="url(#filter8_iii_481_1513)">
<path d="M197.463 73.0618C199.487 73.7261 200.973 75.0328 201.925 76.2838C202.403 76.9119 202.777 77.5658 203.027 78.1812C203.209 78.6306 203.434 79.3165 203.391 80.0416L203.354 80.3538L203.306 80.5692C203.014 81.6185 201.968 82.2966 200.872 82.108C199.803 81.9241 199.057 80.9804 199.09 79.9266C199.08 79.8954 199.067 79.8519 199.044 79.7966C198.952 79.5681 198.775 79.2436 198.504 78.8874C197.958 78.1701 197.147 77.4815 196.122 77.1452C193.149 76.1696 191.806 77.2629 191.855 77.1921L191.881 77.163L191.72 77.3126C190.885 78.012 189.639 77.9792 188.842 77.2027C188.045 76.4262 187.98 75.1817 188.657 74.3286L188.802 74.1634C189.743 73.1984 192.791 71.5284 197.463 73.0618Z" fill="url(#paint23_linear_481_1513)"/>
</g>
<path d="M137 223.75C137 231.346 124.686 237.5 109.5 237.5C94.3145 237.5 82 231.346 82 223.75V212.75H137V223.75Z" fill="url(#paint24_linear_481_1513)"/>
<path d="M137 212.75C137 220.34 124.686 226.5 109.5 226.5C94.3145 226.5 82 220.34 82 212.75C82 205.16 94.3145 199 109.5 199C124.686 199 137 205.16 137 212.75Z" fill="url(#paint25_linear_481_1513)"/>
<path d="M137 201.75C137 209.346 124.686 215.5 109.5 215.5C94.3145 215.5 82 209.346 82 201.75V190.75H137V201.75Z" fill="url(#paint26_linear_481_1513)"/>
<path d="M137 190.75C137 198.34 124.686 204.5 109.5 204.5C94.3145 204.5 82 198.34 82 190.75C82 183.16 94.3145 177 109.5 177C124.686 177 137 183.16 137 190.75Z" fill="url(#paint27_linear_481_1513)"/>
<path d="M137 179.75C137 187.346 124.686 193.5 109.5 193.5C94.3145 193.5 82 187.346 82 179.75V168.75H137V179.75Z" fill="url(#paint28_linear_481_1513)"/>
<path d="M137 168.75C137 176.34 124.686 182.5 109.5 182.5C94.3145 182.5 82 176.34 82 168.75C82 161.16 94.3145 155 109.5 155C124.686 155 137 161.16 137 168.75Z" fill="url(#paint29_linear_481_1513)"/>
<g filter="url(#filter9_i_481_1513)">
<path d="M117.667 162.957C116.042 162.462 114.453 162 109.202 162C102.639 162 95.9991 164.574 96 168C96.0009 171.583 101.983 174 109.201 174C116.418 174 120.267 171.692 122 170.323" stroke="#FFC71E" stroke-width="5"/>
</g>
<path opacity="0.5" d="M75.0301 126.97C75.2243 127.165 75.3334 127.429 75.3334 127.704C75.3334 127.979 75.2243 128.243 75.0301 128.438L74.5558 128.915C74.3601 129.104 74.0981 129.208 73.8261 129.206C73.5542 129.203 73.2941 129.094 73.1019 128.901C72.9097 128.709 72.8007 128.448 72.7985 128.176C72.7963 127.903 72.9009 127.641 73.09 127.445L73.5643 126.97C73.7587 126.776 74.0223 126.667 74.2972 126.667C74.572 126.667 74.8356 126.776 75.0301 126.97ZM56.9701 126.97C57.1645 126.776 57.4281 126.667 57.703 126.667C57.9778 126.667 58.2414 126.776 58.4359 126.97L58.9116 127.445C59.1004 127.641 59.2048 127.904 59.2023 128.176C59.1999 128.448 59.0907 128.709 58.8983 128.901C58.7059 129.094 58.4457 129.203 58.1738 129.205C57.9018 129.207 57.6399 129.102 57.4444 128.913L56.9701 128.438C56.7758 128.243 56.6667 127.979 56.6667 127.704C56.6667 127.429 56.7758 127.165 56.9701 126.97ZM58.9102 143.112C59.1044 143.307 59.2135 143.571 59.2135 143.846C59.2135 144.121 59.1044 144.385 58.9102 144.58L58.4359 145.055C58.2393 145.238 57.9792 145.338 57.7105 145.333C57.4419 145.328 57.1855 145.219 56.9955 145.029C56.8055 144.839 56.6966 144.582 56.6919 144.313C56.6871 144.044 56.7869 143.784 56.9701 143.587L57.4444 143.112C57.6388 142.917 57.9024 142.808 58.1773 142.808C58.4521 142.808 58.7157 142.917 58.9102 143.112ZM73.09 143.112C73.2844 142.917 73.548 142.808 73.8229 142.808C74.0977 142.808 74.3613 142.917 74.5558 143.112L75.0301 143.587C75.2133 143.784 75.313 144.044 75.3083 144.313C75.3036 144.582 75.1947 144.839 75.0047 145.029C74.8147 145.219 74.5583 145.328 74.2896 145.333C74.0209 145.338 73.7609 145.238 73.5643 145.055L73.09 144.58C72.8957 144.385 72.7866 144.121 72.7866 143.846C72.7866 143.571 72.8957 143.307 73.09 143.112Z" fill="#1DC3FF"/>
<path opacity="0.8" fill-rule="evenodd" clip-rule="evenodd" d="M66 122C66.259 122 66.5075 122.103 66.6907 122.286C66.8738 122.469 66.9767 122.718 66.9767 122.977L66.9767 125.581C66.9767 125.84 66.8738 126.089 66.6907 126.272C66.5075 126.455 66.259 126.558 66 126.558C65.741 126.558 65.4925 126.455 65.3093 126.272C65.1262 126.089 65.0233 125.84 65.0233 125.581L65.0233 122.977C65.0233 122.718 65.1262 122.469 65.3093 122.286C65.4925 122.103 65.741 122 66 122ZM52 136C52 135.741 52.1029 135.493 52.2861 135.309C52.4693 135.126 52.7177 135.023 52.9767 135.023L55.5814 135.023C55.8404 135.023 56.0889 135.126 56.2721 135.309C56.4552 135.493 56.5581 135.741 56.5581 136C56.5581 136.259 56.4552 136.507 56.2721 136.691C56.0889 136.874 55.8404 136.977 55.5814 136.977L52.9767 136.977C52.7177 136.977 52.4693 136.874 52.2861 136.691C52.1029 136.507 52 136.259 52 136ZM75.4419 136C75.4419 135.741 75.5448 135.493 75.7279 135.309C75.9111 135.126 76.1596 135.023 76.4186 135.023L79.0233 135.023C79.2823 135.023 79.5307 135.126 79.7139 135.309C79.8971 135.493 80 135.741 80 136C80 136.259 79.8971 136.507 79.7139 136.691C79.5307 136.874 79.2823 136.977 79.0233 136.977L76.4186 136.977C76.1596 136.977 75.9111 136.874 75.7279 136.691C75.5448 136.507 75.4419 136.259 75.4419 136ZM66 145.442C66.259 145.442 66.5075 145.545 66.6907 145.728C66.8738 145.911 66.9767 146.16 66.9767 146.419L66.9767 149.023C66.9767 149.282 66.8738 149.531 66.6907 149.714C66.5075 149.897 66.259 150 66 150C65.741 150 65.4925 149.897 65.3093 149.714C65.1262 149.531 65.0233 149.282 65.0233 149.023L65.0233 146.419C65.0233 146.16 65.1262 145.911 65.3093 145.728C65.4925 145.545 65.741 145.442 66 145.442Z" fill="#1DC3FF"/>
<path d="M69.7866 138.785C68.9889 138.977 68.1561 138.967 67.3629 138.758C66.5697 138.549 65.8407 138.146 65.2413 137.586C64.6419 137.026 64.1908 136.326 63.9283 135.548C63.6659 134.771 63.6003 133.941 63.7374 133.132C63.7169 133.153 63.6948 133.171 63.6715 133.189C63.5081 133.313 63.3038 133.359 62.8953 133.451L62.5247 133.535C61.089 133.86 60.3712 134.023 60.2002 134.572C60.0297 135.12 60.5188 135.693 61.4975 136.837L61.7508 137.133C62.0286 137.458 62.1681 137.621 62.2305 137.822C62.293 138.023 62.272 138.24 62.23 138.674L62.1914 139.069C62.0438 140.597 61.9697 141.36 62.4167 141.699C62.8638 142.038 63.5361 141.729 64.8796 141.11L65.228 140.95C65.6097 140.774 65.8005 140.686 66.003 140.686C66.2055 140.686 66.3964 140.774 66.7787 140.95L67.1259 141.11C68.47 141.729 69.1423 142.038 69.5888 141.7C70.0364 141.36 69.9623 140.597 69.8146 139.069L69.7866 138.785Z" fill="#13C0FF"/>
<path opacity="0.5" d="M64.336 132.155L64.1446 132.498C63.9345 132.875 63.8294 133.064 63.666 133.188C63.6893 133.171 63.7113 133.152 63.7319 133.131C63.5948 133.94 63.6604 134.771 63.9228 135.548C64.1853 136.325 64.6365 137.025 65.236 137.586C65.8354 138.146 66.5645 138.548 67.3578 138.758C68.1511 138.967 68.9839 138.976 69.7817 138.784L69.77 138.673C69.7286 138.24 69.7076 138.023 69.77 137.821C69.8325 137.621 69.9714 137.458 70.2497 137.133L70.503 136.837C71.4818 135.693 71.9708 135.12 71.7998 134.571C71.6294 134.022 70.9116 133.859 69.4759 133.535L69.1047 133.451C68.6967 133.358 68.4925 133.312 68.3285 133.188C68.1651 133.064 68.06 132.875 67.8499 132.498L67.6591 132.155C66.9196 130.829 66.5502 130.166 65.9975 130.166C65.4448 130.166 65.0754 130.829 64.336 132.155Z" fill="#13C0FF"/>
<defs>
<filter id="filter0_iiii_481_1513" x="168.186" y="166.953" width="34.7725" height="18.097" filterUnits="userSpaceOnUse" color-interpolation-filters="sRGB">
<feFlood flood-opacity="0" result="BackgroundImageFix"/>
<feBlend mode="normal" in="SourceGraphic" in2="BackgroundImageFix" result="shape"/>
<feColorMatrix in="SourceAlpha" type="matrix" values="0 0 0 0 0 0 0 0 0 0 0 0 0 0 0 0 0 0 127 0" result="hardAlpha"/>
<feOffset/>
<feGaussianBlur stdDeviation="2.5"/>
<feComposite in2="hardAlpha" operator="arithmetic" k2="-1" k3="1"/>
<feColorMatrix type="matrix" values="0 0 0 0 0 0 0 0 0 0 0 0 0 0 0 0 0 0 0.25 0"/>
<feBlend mode="normal" in2="shape" result="effect1_innerShadow_481_1513"/>
<feColorMatrix in="SourceAlpha" type="matrix" values="0 0 0 0 0 0 0 0 0 0 0 0 0 0 0 0 0 0 127 0" result="hardAlpha"/>
<feOffset dx="3" dy="3"/>
<feGaussianBlur stdDeviation="7.5"/>
<feComposite in2="hardAlpha" operator="arithmetic" k2="-1" k3="1"/>
<feColorMatrix type="matrix" values="0 0 0 0 1 0 0 0 0 1 0 0 0 0 1 0 0 0 0.25 0"/>
<feBlend mode="normal" in2="effect1_innerShadow_481_1513" result="effect2_innerShadow_481_1513"/>
<feColorMatrix in="SourceAlpha" type="matrix" values="0 0 0 0 0 0 0 0 0 0 0 0 0 0 0 0 0 0 127 0" result="hardAlpha"/>
<feOffset dx="2" dy="-2"/>
<feGaussianBlur stdDeviation="2.5"/>
<feComposite in2="hardAlpha" operator="arithmetic" k2="-1" k3="1"/>
<feColorMatrix type="matrix" values="0 0 0 0 0.455396 0 0 0 0 0.966616 0 0 0 0 0.79621 0 0 0 0.3 0"/>
<feBlend mode="normal" in2="effect2_innerShadow_481_1513" result="effect3_innerShadow_481_1513"/>
<feColorMatrix in="SourceAlpha" type="matrix" values="0 0 0 0 0 0 0 0 0 0 0 0 0 0 0 0 0 0 127 0" result="hardAlpha"/>
<feOffset dx="2" dy="2"/>
<feGaussianBlur stdDeviation="5"/>
<feComposite in2="hardAlpha" operator="arithmetic" k2="-1" k3="1"/>
<feColorMatrix type="matrix" values="0 0 0 0 1 0 0 0 0 1 0 0 0 0 1 0 0 0 0.1 0"/>
<feBlend mode="normal" in2="effect3_innerShadow_481_1513" result="effect4_innerShadow_481_1513"/>
</filter>
<filter id="filter1_iiii_481_1513" x="123" y="17.8488" width="127" height="145.734" filterUnits="userSpaceOnUse" color-interpolation-filters="sRGB">
<feFlood flood-opacity="0" result="BackgroundImageFix"/>
<feBlend mode="normal" in="SourceGraphic" in2="BackgroundImageFix" result="shape"/>
<feColorMatrix in="SourceAlpha" type="matrix" values="0 0 0 0 0 0 0 0 0 0 0 0 0 0 0 0 0 0 127 0" result="hardAlpha"/>
<feOffset/>
<feGaussianBlur stdDeviation="15"/>
<feComposite in2="hardAlpha" operator="arithmetic" k2="-1" k3="1"/>
<feColorMatrix type="matrix" values="0 0 0 0 0.573718 0 0 0 0 0.573718 0 0 0 0 0.573718 0 0 0 0.5 0"/>
<feBlend mode="normal" in2="shape" result="effect1_innerShadow_481_1513"/>
<feColorMatrix in="SourceAlpha" type="matrix" values="0 0 0 0 0 0 0 0 0 0 0 0 0 0 0 0 0 0 127 0" result="hardAlpha"/>
<feOffset dx="10" dy="10"/>
<feGaussianBlur stdDeviation="10"/>
<feComposite in2="hardAlpha" operator="arithmetic" k2="-1" k3="1"/>
<feColorMatrix type="matrix" values="0 0 0 0 1 0 0 0 0 1 0 0 0 0 1 0 0 0 0.3 0"/>
<feBlend mode="normal" in2="effect1_innerShadow_481_1513" result="effect2_innerShadow_481_1513"/>
<feColorMatrix in="SourceAlpha" type="matrix" values="0 0 0 0 0 0 0 0 0 0 0 0 0 0 0 0 0 0 127 0" result="hardAlpha"/>
<feOffset dx="10" dy="-10"/>
<feGaussianBlur stdDeviation="10"/>
<feComposite in2="hardAlpha" operator="arithmetic" k2="-1" k3="1"/>
<feColorMatrix type="matrix" values="0 0 0 0 1 0 0 0 0 1 0 0 0 0 1 0 0 0 0.3 0"/>
<feBlend mode="normal" in2="effect2_innerShadow_481_1513" result="effect3_innerShadow_481_1513"/>
<feColorMatrix in="SourceAlpha" type="matrix" values="0 0 0 0 0 0 0 0 0 0 0 0 0 0 0 0 0 0 127 0" result="hardAlpha"/>
<feOffset dx="10" dy="-10"/>
<feGaussianBlur stdDeviation="10"/>
<feComposite in2="hardAlpha" operator="arithmetic" k2="-1" k3="1"/>
<feColorMatrix type="matrix" values="0 0 0 0 1 0 0 0 0 1 0 0 0 0 1 0 0 0 0.3 0"/>
<feBlend mode="normal" in2="effect3_innerShadow_481_1513" result="effect4_innerShadow_481_1513"/>
</filter>
<filter id="filter2_ii_481_1513" x="150.941" y="108.64" width="49.6389" height="27.1297" filterUnits="userSpaceOnUse" color-interpolation-filters="sRGB">
<feFlood flood-opacity="0" result="BackgroundImageFix"/>
<feBlend mode="normal" in="SourceGraphic" in2="BackgroundImageFix" result="shape"/>
<feColorMatrix in="SourceAlpha" type="matrix" values="0 0 0 0 0 0 0 0 0 0 0 0 0 0 0 0 0 0 127 0" result="hardAlpha"/>
<feOffset dx="7" dy="4"/>
<feGaussianBlur stdDeviation="2"/>
<feComposite in2="hardAlpha" operator="arithmetic" k2="-1" k3="1"/>
<feColorMatrix type="matrix" values="0 0 0 0 1 0 0 0 0 1 0 0 0 0 1 0 0 0 0.2 0"/>
<feBlend mode="normal" in2="shape" result="effect1_innerShadow_481_1513"/>
<feColorMatrix in="SourceAlpha" type="matrix" values="0 0 0 0 0 0 0 0 0 0 0 0 0 0 0 0 0 0 127 0" result="hardAlpha"/>
<feOffset dx="12" dy="6"/>
<feGaussianBlur stdDeviation="5"/>
<feComposite in2="hardAlpha" operator="arithmetic" k2="-1" k3="1"/>
<feColorMatrix type="matrix" values="0 0 0 0 1 0 0 0 0 1 0 0 0 0 1 0 0 0 0.1 0"/>
<feBlend mode="normal" in2="effect1_innerShadow_481_1513" result="effect2_innerShadow_481_1513"/>
</filter>
<filter id="filter3_i_481_1513" x="151.956" y="128.119" width="35.5227" height="11.03" filterUnits="userSpaceOnUse" color-interpolation-filters="sRGB">
<feFlood flood-opacity="0" result="BackgroundImageFix"/>
<feBlend mode="normal" in="SourceGraphic" in2="BackgroundImageFix" result="shape"/>
<feColorMatrix in="SourceAlpha" type="matrix" values="0 0 0 0 0 0 0 0 0 0 0 0 0 0 0 0 0 0 127 0" result="hardAlpha"/>
<feOffset dx="-5" dy="1"/>
<feGaussianBlur stdDeviation="2"/>
<feComposite in2="hardAlpha" operator="arithmetic" k2="-1" k3="1"/>
<feColorMatrix type="matrix" values="0 0 0 0 1 0 0 0 0 0.667468 0 0 0 0 0.201923 0 0 0 1 0"/>
<feBlend mode="normal" in2="shape" result="effect1_innerShadow_481_1513"/>
</filter>
<filter id="filter4_iiii_481_1513" x="130.194" y="112.373" width="60.6187" height="20.1079" filterUnits="userSpaceOnUse" color-interpolation-filters="sRGB">
<feFlood flood-opacity="0" result="BackgroundImageFix"/>
<feBlend mode="normal" in="SourceGraphic" in2="BackgroundImageFix" result="shape"/>
<feColorMatrix in="SourceAlpha" type="matrix" values="0 0 0 0 0 0 0 0 0 0 0 0 0 0 0 0 0 0 127 0" result="hardAlpha"/>
<feOffset dy="2"/>
<feGaussianBlur stdDeviation="5"/>
<feComposite in2="hardAlpha" operator="arithmetic" k2="-1" k3="1"/>
<feColorMatrix type="matrix" values="0 0 0 0 1 0 0 0 0 1 0 0 0 0 1 0 0 0 0.25 0"/>
<feBlend mode="normal" in2="shape" result="effect1_innerShadow_481_1513"/>
<feColorMatrix in="SourceAlpha" type="matrix" values="0 0 0 0 0 0 0 0 0 0 0 0 0 0 0 0 0 0 127 0" result="hardAlpha"/>
<feOffset dx="-15" dy="-5"/>
<feGaussianBlur stdDeviation="2"/>
<feComposite in2="hardAlpha" operator="arithmetic" k2="-1" k3="1"/>
<feColorMatrix type="matrix" values="0 0 0 0 1 0 0 0 0 0.640865 0 0 0 0 0.201923 0 0 0 1 0"/>
<feBlend mode="normal" in2="effect1_innerShadow_481_1513" result="effect2_innerShadow_481_1513"/>
<feColorMatrix in="SourceAlpha" type="matrix" values="0 0 0 0 0 0 0 0 0 0 0 0 0 0 0 0 0 0 127 0" result="hardAlpha"/>
<feOffset dx="-15" dy="-10"/>
<feGaussianBlur stdDeviation="1.5"/>
<feComposite in2="hardAlpha" operator="arithmetic" k2="-1" k3="1"/>
<feColorMatrix type="matrix" values="0 0 0 0 1 0 0 0 0 0.835102 0 0 0 0 0.331731 0 0 0 0.1 0"/>
<feBlend mode="normal" in2="effect2_innerShadow_481_1513" result="effect3_innerShadow_481_1513"/>
<feColorMatrix in="SourceAlpha" type="matrix" values="0 0 0 0 0 0 0 0 0 0 0 0 0 0 0 0 0 0 127 0" result="hardAlpha"/>
<feOffset dx="-10" dy="-5"/>
<feGaussianBlur stdDeviation="5"/>
<feComposite in2="hardAlpha" operator="arithmetic" k2="-1" k3="1"/>
<feColorMatrix type="matrix" values="0 0 0 0 0.937255 0 0 0 0 0.603922 0 0 0 0 0.247059 0 0 0 0.1 0"/>
<feBlend mode="normal" in2="effect3_innerShadow_481_1513" result="effect4_innerShadow_481_1513"/>
</filter>
<filter id="filter5_iiii_481_1513" x="144.493" y="82.2979" width="24.3286" height="30.6271" filterUnits="userSpaceOnUse" color-interpolation-filters="sRGB">
<feFlood flood-opacity="0" result="BackgroundImageFix"/>
<feBlend mode="normal" in="SourceGraphic" in2="BackgroundImageFix" result="shape"/>
<feColorMatrix in="SourceAlpha" type="matrix" values="0 0 0 0 0 0 0 0 0 0 0 0 0 0 0 0 0 0 127 0" result="hardAlpha"/>
<feOffset/>
<feGaussianBlur stdDeviation="2"/>
<feComposite in2="hardAlpha" operator="arithmetic" k2="-1" k3="1"/>
<feColorMatrix type="matrix" values="0 0 0 0 0 0 0 0 0 0 0 0 0 0 0 0 0 0 0.25 0"/>
<feBlend mode="normal" in2="shape" result="effect1_innerShadow_481_1513"/>
<feColorMatrix in="SourceAlpha" type="matrix" values="0 0 0 0 0 0 0 0 0 0 0 0 0 0 0 0 0 0 127 0" result="hardAlpha"/>
<feOffset dx="1" dy="1"/>
<feGaussianBlur stdDeviation="2.5"/>
<feComposite in2="hardAlpha" operator="arithmetic" k2="-1" k3="1"/>
<feColorMatrix type="matrix" values="0 0 0 0 1 0 0 0 0 1 0 0 0 0 1 0 0 0 0.25 0"/>
<feBlend mode="normal" in2="effect1_innerShadow_481_1513" result="effect2_innerShadow_481_1513"/>
<feColorMatrix in="SourceAlpha" type="matrix" values="0 0 0 0 0 0 0 0 0 0 0 0 0 0 0 0 0 0 127 0" result="hardAlpha"/>
<feOffset dx="0.5" dy="2"/>
<feGaussianBlur stdDeviation="2.5"/>
<feComposite in2="hardAlpha" operator="arithmetic" k2="-1" k3="1"/>
<feColorMatrix type="matrix" values="0 0 0 0 0 0 0 0 0 0 0 0 0 0 0 0 0 0 0.25 0"/>
<feBlend mode="normal" in2="effect2_innerShadow_481_1513" result="effect3_innerShadow_481_1513"/>
<feColorMatrix in="SourceAlpha" type="matrix" values="0 0 0 0 0 0 0 0 0 0 0 0 0 0 0 0 0 0 127 0" result="hardAlpha"/>
<feOffset dx="10" dy="-10"/>
<feGaussianBlur stdDeviation="10"/>
<feComposite in2="hardAlpha" operator="arithmetic" k2="-1" k3="1"/>
<feColorMatrix type="matrix" values="0 0 0 0 1 0 0 0 0 1 0 0 0 0 1 0 0 0 0.05 0"/>
<feBlend mode="normal" in2="effect3_innerShadow_481_1513" result="effect4_innerShadow_481_1513"/>
</filter>
<filter id="filter6_iiii_481_1513" x="183.18" y="82.2979" width="25.0449" height="30.6271" filterUnits="userSpaceOnUse" color-interpolation-filters="sRGB">
<feFlood flood-opacity="0" result="BackgroundImageFix"/>
<feBlend mode="normal" in="SourceGraphic" in2="BackgroundImageFix" result="shape"/>
<feColorMatrix in="SourceAlpha" type="matrix" values="0 0 0 0 0 0 0 0 0 0 0 0 0 0 0 0 0 0 127 0" result="hardAlpha"/>
<feOffset/>
<feGaussianBlur stdDeviation="2"/>
<feComposite in2="hardAlpha" operator="arithmetic" k2="-1" k3="1"/>
<feColorMatrix type="matrix" values="0 0 0 0 0 0 0 0 0 0 0 0 0 0 0 0 0 0 0.25 0"/>
<feBlend mode="normal" in2="shape" result="effect1_innerShadow_481_1513"/>
<feColorMatrix in="SourceAlpha" type="matrix" values="0 0 0 0 0 0 0 0 0 0 0 0 0 0 0 0 0 0 127 0" result="hardAlpha"/>
<feOffset dx="1" dy="1"/>
<feGaussianBlur stdDeviation="2.5"/>
<feComposite in2="hardAlpha" operator="arithmetic" k2="-1" k3="1"/>
<feColorMatrix type="matrix" values="0 0 0 0 1 0 0 0 0 1 0 0 0 0 1 0 0 0 0.25 0"/>
<feBlend mode="normal" in2="effect1_innerShadow_481_1513" result="effect2_innerShadow_481_1513"/>
<feColorMatrix in="SourceAlpha" type="matrix" values="0 0 0 0 0 0 0 0 0 0 0 0 0 0 0 0 0 0 127 0" result="hardAlpha"/>
<feOffset dx="0.5" dy="2"/>
<feGaussianBlur stdDeviation="2.5"/>
<feComposite in2="hardAlpha" operator="arithmetic" k2="-1" k3="1"/>
<feColorMatrix type="matrix" values="0 0 0 0 0 0 0 0 0 0 0 0 0 0 0 0 0 0 0.25 0"/>
<feBlend mode="normal" in2="effect2_innerShadow_481_1513" result="effect3_innerShadow_481_1513"/>
<feColorMatrix in="SourceAlpha" type="matrix" values="0 0 0 0 0 0 0 0 0 0 0 0 0 0 0 0 0 0 127 0" result="hardAlpha"/>
<feOffset dx="10" dy="-10"/>
<feGaussianBlur stdDeviation="10"/>
<feComposite in2="hardAlpha" operator="arithmetic" k2="-1" k3="1"/>
<feColorMatrix type="matrix" values="0 0 0 0 1 0 0 0 0 1 0 0 0 0 1 0 0 0 0.05 0"/>
<feBlend mode="normal" in2="effect3_innerShadow_481_1513" result="effect4_innerShadow_481_1513"/>
</filter>
<filter id="filter7_iii_481_1513" x="139.478" y="72.89" width="15.3289" height="11.3792" filterUnits="userSpaceOnUse" color-interpolation-filters="sRGB">
<feFlood flood-opacity="0" result="BackgroundImageFix"/>
<feBlend mode="normal" in="SourceGraphic" in2="BackgroundImageFix" result="shape"/>
<feColorMatrix in="SourceAlpha" type="matrix" values="0 0 0 0 0 0 0 0 0 0 0 0 0 0 0 0 0 0 127 0" result="hardAlpha"/>
<feOffset/>
<feGaussianBlur stdDeviation="2"/>
<feComposite in2="hardAlpha" operator="arithmetic" k2="-1" k3="1"/>
<feColorMatrix type="matrix" values="0 0 0 0 0 0 0 0 0 0 0 0 0 0 0 0 0 0 0.25 0"/>
<feBlend mode="normal" in2="shape" result="effect1_innerShadow_481_1513"/>
<feColorMatrix in="SourceAlpha" type="matrix" values="0 0 0 0 0 0 0 0 0 0 0 0 0 0 0 0 0 0 127 0" result="hardAlpha"/>
<feOffset dx="1" dy="1"/>
<feGaussianBlur stdDeviation="2.5"/>
<feComposite in2="hardAlpha" operator="arithmetic" k2="-1" k3="1"/>
<feColorMatrix type="matrix" values="0 0 0 0 1 0 0 0 0 1 0 0 0 0 1 0 0 0 0.25 0"/>
<feBlend mode="normal" in2="effect1_innerShadow_481_1513" result="effect2_innerShadow_481_1513"/>
<feColorMatrix in="SourceAlpha" type="matrix" values="0 0 0 0 0 0 0 0 0 0 0 0 0 0 0 0 0 0 127 0" result="hardAlpha"/>
<feOffset dx="0.5" dy="2"/>
<feGaussianBlur stdDeviation="2.5"/>
<feComposite in2="hardAlpha" operator="arithmetic" k2="-1" k3="1"/>
<feColorMatrix type="matrix" values="0 0 0 0 0 0 0 0 0 0 0 0 0 0 0 0 0 0 0.25 0"/>
<feBlend mode="normal" in2="effect2_innerShadow_481_1513" result="effect3_innerShadow_481_1513"/>
</filter>
<filter id="filter8_iii_481_1513" x="188.193" y="72.4406" width="16.2031" height="11.6988" filterUnits="userSpaceOnUse" color-interpolation-filters="sRGB">
<feFlood flood-opacity="0" result="BackgroundImageFix"/>
<feBlend mode="normal" in="SourceGraphic" in2="BackgroundImageFix" result="shape"/>
<feColorMatrix in="SourceAlpha" type="matrix" values="0 0 0 0 0 0 0 0 0 0 0 0 0 0 0 0 0 0 127 0" result="hardAlpha"/>
<feOffset/>
<feGaussianBlur stdDeviation="2"/>
<feComposite in2="hardAlpha" operator="arithmetic" k2="-1" k3="1"/>
<feColorMatrix type="matrix" values="0 0 0 0 0 0 0 0 0 0 0 0 0 0 0 0 0 0 0.25 0"/>
<feBlend mode="normal" in2="shape" result="effect1_innerShadow_481_1513"/>
<feColorMatrix in="SourceAlpha" type="matrix" values="0 0 0 0 0 0 0 0 0 0 0 0 0 0 0 0 0 0 127 0" result="hardAlpha"/>
<feOffset dx="1" dy="1"/>
<feGaussianBlur stdDeviation="2.5"/>
<feComposite in2="hardAlpha" operator="arithmetic" k2="-1" k3="1"/>
<feColorMatrix type="matrix" values="0 0 0 0 1 0 0 0 0 1 0 0 0 0 1 0 0 0 0.25 0"/>
<feBlend mode="normal" in2="effect1_innerShadow_481_1513" result="effect2_innerShadow_481_1513"/>
<feColorMatrix in="SourceAlpha" type="matrix" values="0 0 0 0 0 0 0 0 0 0 0 0 0 0 0 0 0 0 127 0" result="hardAlpha"/>
<feOffset dx="0.5" dy="2"/>
<feGaussianBlur stdDeviation="2.5"/>
<feComposite in2="hardAlpha" operator="arithmetic" k2="-1" k3="1"/>
<feColorMatrix type="matrix" values="0 0 0 0 0 0 0 0 0 0 0 0 0 0 0 0 0 0 0.25 0"/>
<feBlend mode="normal" in2="effect2_innerShadow_481_1513" result="effect3_innerShadow_481_1513"/>
</filter>
<filter id="filter9_i_481_1513" x="93.5" y="159.5" width="30.05" height="18" filterUnits="userSpaceOnUse" color-interpolation-filters="sRGB">
<feFlood flood-opacity="0" result="BackgroundImageFix"/>
<feBlend mode="normal" in="SourceGraphic" in2="BackgroundImageFix" result="shape"/>
<feColorMatrix in="SourceAlpha" type="matrix" values="0 0 0 0 0 0 0 0 0 0 0 0 0 0 0 0 0 0 127 0" result="hardAlpha"/>
<feOffset dy="1"/>
<feGaussianBlur stdDeviation="0.5"/>
<feComposite in2="hardAlpha" operator="arithmetic" k2="-1" k3="1"/>
<feColorMatrix type="matrix" values="0 0 0 0 0.752564 0 0 0 0 0.516182 0 0 0 0 0.185247 0 0 0 1 0"/>
<feBlend mode="normal" in2="shape" result="effect1_innerShadow_481_1513"/>
</filter>
<linearGradient id="paint0_linear_481_1513" x1="170" y1="259.429" x2="188.03" y2="255.492" gradientUnits="userSpaceOnUse">
<stop offset="0.227213" stop-color="#FFAA33"/>
<stop offset="1" stop-color="#FF7B33"/>
</linearGradient>
<linearGradient id="paint1_linear_481_1513" x1="158.724" y1="270.981" x2="171.308" y2="281.771" gradientUnits="userSpaceOnUse">
<stop stop-color="#FFAA33"/>
<stop offset="1" stop-color="#FF7B33"/>
</linearGradient>
<linearGradient id="paint2_linear_481_1513" x1="211.333" y1="253.789" x2="192.56" y2="259.527" gradientUnits="userSpaceOnUse">
<stop stop-color="#FFAA33"/>
<stop offset="1" stop-color="#FF7433"/>
</linearGradient>
<linearGradient id="paint3_linear_481_1513" x1="204.677" y1="294.877" x2="178.073" y2="270.073" gradientUnits="userSpaceOnUse">
<stop offset="0.286837" stop-color="#FFAA33"/>
<stop offset="0.543269" stop-color="#FF8D33"/>
<stop offset="1" stop-color="#FFAA33"/>
</linearGradient>
<linearGradient id="paint4_linear_481_1513" x1="135.415" y1="208.858" x2="177.895" y2="263.568" gradientUnits="userSpaceOnUse">
<stop stop-color="white"/>
<stop offset="1" stop-color="#999999"/>
</linearGradient>
<linearGradient id="paint5_linear_481_1513" x1="248.052" y1="192.767" x2="221.019" y2="207.571" gradientUnits="userSpaceOnUse">
<stop offset="0.174664" stop-color="white"/>
<stop offset="1" stop-color="#999999"/>
</linearGradient>
<linearGradient id="paint6_linear_481_1513" x1="181.757" y1="225.593" x2="233.892" y2="242.971" gradientUnits="userSpaceOnUse">
<stop stop-color="#FBFBFB"/>
<stop offset="1" stop-color="#999999"/>
</linearGradient>
<linearGradient id="paint7_linear_481_1513" x1="172.746" y1="181.826" x2="199.135" y2="140.633" gradientUnits="userSpaceOnUse">
<stop stop-color="white"/>
<stop offset="1" stop-color="#999999"/>
</linearGradient>
<linearGradient id="paint8_linear_481_1513" x1="151.506" y1="188.262" x2="163.735" y2="208.858" gradientUnits="userSpaceOnUse">
<stop stop-color="#74F6CB"/>
<stop offset="1" stop-color="#449077"/>
</linearGradient>
<linearGradient id="paint9_linear_481_1513" x1="235.823" y1="202.422" x2="204.324" y2="215.624" gradientUnits="userSpaceOnUse">
<stop stop-color="#74F6CB"/>
<stop offset="1" stop-color="#449077"/>
</linearGradient>
<linearGradient id="paint10_linear_481_1513" x1="164.379" y1="185.687" x2="190.125" y2="219.157" gradientUnits="userSpaceOnUse">
<stop stop-color="#74F6CB"/>
<stop offset="1" stop-color="#449077"/>
</linearGradient>
<linearGradient id="paint11_linear_481_1513" x1="179.826" y1="189.549" x2="222.95" y2="195.986" gradientUnits="userSpaceOnUse">
<stop stop-color="#74F6CB"/>
<stop offset="1" stop-color="#449077"/>
</linearGradient>
<linearGradient id="paint12_linear_481_1513" x1="175.321" y1="212.72" x2="245.477" y2="265.499" gradientUnits="userSpaceOnUse">
<stop stop-color="white"/>
<stop offset="1" stop-color="#999999"/>
</linearGradient>
<linearGradient id="paint13_linear_481_1513" x1="175.965" y1="177.32" x2="206.216" y2="186.975" gradientUnits="userSpaceOnUse">
<stop stop-color="#74F6CB"/>
<stop offset="1" stop-color="#449077"/>
</linearGradient>
<linearGradient id="paint14_linear_481_1513" x1="191.777" y1="18.5058" x2="210.404" y2="29.9687" gradientUnits="userSpaceOnUse">
<stop stop-color="white"/>
<stop offset="1" stop-color="#999999"/>
</linearGradient>
<linearGradient id="paint15_linear_481_1513" x1="181.747" y1="17.7894" x2="203.24" y2="36.4165" gradientUnits="userSpaceOnUse">
<stop stop-color="white"/>
<stop offset="1" stop-color="#999999"/>
</linearGradient>
<linearGradient id="paint16_linear_481_1513" x1="131.597" y1="63.6408" x2="240.494" y2="153.911" gradientUnits="userSpaceOnUse">
<stop stop-color="white"/>
<stop offset="1" stop-color="#D9D9D9"/>
</linearGradient>
<linearGradient id="paint17_linear_481_1513" x1="164.553" y1="110.209" x2="178.165" y2="131.701" gradientUnits="userSpaceOnUse">
<stop stop-color="#FFD555"/>
<stop offset="1" stop-color="#FFAA33"/>
</linearGradient>
<linearGradient id="paint18_linear_481_1513" x1="170.284" y1="130.985" x2="165.465" y2="140.759" gradientUnits="userSpaceOnUse">
<stop stop-color="#FF5100"/>
<stop offset="1" stop-color="#FFAA33"/>
</linearGradient>
<linearGradient id="paint19_linear_481_1513" x1="140.194" y1="123.927" x2="190.813" y2="123.927" gradientUnits="userSpaceOnUse">
<stop stop-color="#FFD555"/>
<stop offset="1" stop-color="#FFAA33"/>
</linearGradient>
<radialGradient id="paint20_radial_481_1513" cx="0" cy="0" r="1" gradientUnits="userSpaceOnUse" gradientTransform="translate(149.508 97.3129) rotate(143.13) scale(14.3286 14.3286)">
<stop stop-color="white"/>
<stop offset="0.219296" stop-color="#2D2D2D" stop-opacity="0.9"/>
<stop offset="0.740999"/>
</radialGradient>
<radialGradient id="paint21_radial_481_1513" cx="0" cy="0" r="1" gradientUnits="userSpaceOnUse" gradientTransform="translate(188.195 97.3129) rotate(143.13) scale(14.3286)">
<stop stop-color="white"/>
<stop offset="0.219296" stop-color="#2D2D2D" stop-opacity="0.9"/>
<stop offset="0.740999"/>
</radialGradient>
<linearGradient id="paint22_linear_481_1513" x1="149.073" y1="75.2167" x2="138.48" y2="72.1248" gradientUnits="userSpaceOnUse">
<stop/>
<stop offset="1" stop-color="#6A6A6A"/>
</linearGradient>
<linearGradient id="paint23_linear_481_1513" x1="197.509" y1="79.4022" x2="190.344" y2="71.5215" gradientUnits="userSpaceOnUse">
<stop/>
<stop offset="1" stop-color="#6A6A6A"/>
</linearGradient>
<linearGradient id="paint24_linear_481_1513" x1="96.586" y1="218.822" x2="105.661" y2="239.007" gradientUnits="userSpaceOnUse">
<stop stop-color="#FFD555"/>
<stop offset="1" stop-color="#C97C35"/>
</linearGradient>
<linearGradient id="paint25_linear_481_1513" x1="137.077" y1="226.489" x2="113.361" y2="187.686" gradientUnits="userSpaceOnUse">
<stop stop-color="#FFC000"/>
<stop offset="1" stop-color="#FFEFB2"/>
</linearGradient>
<linearGradient id="paint26_linear_481_1513" x1="96.586" y1="196.822" x2="105.661" y2="217.007" gradientUnits="userSpaceOnUse">
<stop stop-color="#FFD555"/>
<stop offset="1" stop-color="#C97C35"/>
</linearGradient>
<linearGradient id="paint27_linear_481_1513" x1="137.077" y1="204.489" x2="113.361" y2="165.686" gradientUnits="userSpaceOnUse">
<stop stop-color="#FFC000"/>
<stop offset="1" stop-color="#FFEFB2"/>
</linearGradient>
<linearGradient id="paint28_linear_481_1513" x1="96.586" y1="174.822" x2="105.661" y2="195.007" gradientUnits="userSpaceOnUse">
<stop stop-color="#FFD555"/>
<stop offset="1" stop-color="#C97C35"/>
</linearGradient>
<linearGradient id="paint29_linear_481_1513" x1="137.077" y1="182.489" x2="113.361" y2="143.686" gradientUnits="userSpaceOnUse">
<stop stop-color="#FFC000"/>
<stop offset="1" stop-color="#FFEFB2"/>
</linearGradient>
</defs>
</svg>
