<svg width="12" height="12" viewBox="0 0 12 12" fill="none" xmlns="http://www.w3.org/2000/svg">
<path d="M5.27862 0.547491C5.50568 -0.182496 6.49432 -0.182498 6.72138 0.547489L7.6178 3.42944C7.71934 3.7559 8.01057 3.97693 8.33918 3.97693H11.24C11.9748 3.97693 12.2803 4.95912 11.6859 5.41028L9.33903 7.19142C9.07318 7.39318 8.96194 7.75082 9.06349 8.07728L9.9599 10.9592C10.187 11.6892 9.38714 12.2962 8.79269 11.8451L6.44584 10.0639C6.17999 9.86218 5.82001 9.86218 5.55416 10.0639L3.20731 11.8451C2.61286 12.2962 1.81304 11.6892 2.0401 10.9592L2.93651 8.07728C3.03806 7.75082 2.92682 7.39318 2.66097 7.19142L0.31412 5.41028C-0.280329 4.95912 0.0251769 3.97693 0.759956 3.97693H3.66082C3.98943 3.97693 4.28066 3.7559 4.3822 3.42944L5.27862 0.547491Z" fill="#CBCBCD"/>
</svg>
