<svg width="19" height="25" viewBox="0 0 19 25" fill="none" xmlns="http://www.w3.org/2000/svg">
<mask id="path-1-inside-1_570_2058" fill="white">
<path d="M9.5 6.18848C13.7751 1.57111 18.9998 4.97912 19 9.78027C18.9998 14.5811 15.1826 17.1408 12.3867 19.4297C11.4621 20.189 10.5687 20.9049 9.67773 20.9912L9.5 21C8.55009 20.9998 7.60026 20.2393 6.61426 19.4297C6.35022 19.2151 6.07875 18.9972 5.80078 18.7754C3.13311 16.6384 0 14.1283 0 9.77832C0.000459663 4.97637 5.22505 1.57123 9.5 6.18848Z"/>
</mask>
<path d="M9.5 6.18848L8.03243 7.54724L9.5 9.13232L10.9676 7.54724L9.5 6.18848ZM19 9.78027L21 9.78034V9.78019L19 9.78027ZM12.3867 19.4297L11.1198 17.8822L11.1175 17.884L12.3867 19.4297ZM9.67773 20.9912L9.77652 22.9888L9.82364 22.9864L9.87061 22.9819L9.67773 20.9912ZM9.5 21L9.4996 23L9.54922 23L9.59878 22.9976L9.5 21ZM6.61426 19.4297L7.8835 17.884L7.87556 17.8776L6.61426 19.4297ZM5.80078 18.7754L4.55037 20.3363L4.55335 20.3387L5.80078 18.7754ZM0 9.77832L-2 9.77813V9.77832H0ZM9.5 6.18848L10.9676 7.54724C12.6018 5.78215 14.0582 5.81366 14.9944 6.25872C16.0801 6.77483 16.9999 8.08553 17 9.78035L19 9.78027L21 9.78019C20.9999 6.67387 19.3072 3.87998 16.7117 2.64614C13.9668 1.34125 10.6733 1.97744 8.03243 4.82971L9.5 6.18848ZM19 9.78027L17 9.78021C16.9999 13.4265 14.2165 15.3469 11.1198 17.8822L12.3867 19.4297L13.6537 20.9772C16.1486 18.9346 20.9998 15.7357 21 9.78034L19 9.78027ZM12.3867 19.4297L11.1175 17.884C10.6411 18.2752 10.2797 18.5644 9.95084 18.7723C9.6173 18.9832 9.48217 19.0008 9.48486 19.0005L9.67773 20.9912L9.87061 22.9819C10.7642 22.8953 11.5213 22.5118 12.0883 22.1533C12.66 21.7919 13.2077 21.3435 13.6559 20.9753L12.3867 19.4297ZM9.67773 20.9912L9.57895 18.9937L9.40122 19.0024L9.5 21L9.59878 22.9976L9.77652 22.9888L9.67773 20.9912ZM9.5 21L9.5004 19C9.55275 19 9.45034 19.0165 9.10928 18.8092C8.77093 18.6036 8.39445 18.3036 7.88348 17.884L6.61426 19.4297L5.34503 20.9753C5.82007 21.3654 6.4115 21.8505 7.03205 22.2276C7.64988 22.603 8.49734 22.9998 9.4996 23L9.5 21ZM6.61426 19.4297L7.87556 17.8776C7.6054 17.658 7.329 17.4361 7.04821 17.2121L5.80078 18.7754L4.55335 20.3387C4.8285 20.5582 5.09504 20.7722 5.35296 20.9818L6.61426 19.4297ZM5.80078 18.7754L7.05119 17.2145C4.26238 14.9805 2 13.0359 2 9.77832H0H-2C-2 15.2207 2.00384 18.2964 4.55038 20.3363L5.80078 18.7754ZM0 9.77832L2 9.77851C2.00016 8.08321 2.92001 6.77327 4.00526 6.25772C4.94132 5.81304 6.39793 5.78186 8.03243 7.54724L9.5 6.18848L10.9676 4.82971C8.32712 1.97784 5.03396 1.34062 2.28887 2.64468C-0.307027 3.87788 -1.9997 6.67148 -2 9.77813L0 9.77832Z" fill="#8B8585" mask="url(#path-1-inside-1_570_2058)"/>
</svg>
