<svg width="20" height="20" viewBox="0 0 20 20" fill="none" xmlns="http://www.w3.org/2000/svg">
<rect width="20" height="20" fill="white"/>
<path d="M8 13C7.17 13 6.4626 12.7074 5.8778 12.1222C5.293 11.537 5.0004 10.8296 5 10C4.9996 9.1704 5.2922 8.463 5.8778 7.8778C6.4634 7.2926 7.1708 7 8 7H9.8C9.97 7 10.1126 7.0576 10.2278 7.1728C10.343 7.288 10.4004 7.4304 10.4 7.6C10.3996 7.7696 10.342 7.9122 10.2272 8.0278C10.1124 8.1434 9.97 8.2008 9.8 8.2H8C7.5 8.2 7.075 8.375 6.725 8.725C6.375 9.075 6.2 9.5 6.2 10C6.2 10.5 6.375 10.925 6.725 11.275C7.075 11.625 7.5 11.8 8 11.8H9.8C9.97 11.8 10.1126 11.8576 10.2278 11.9728C10.343 12.088 10.4004 12.2304 10.4 12.4C10.3996 12.5696 10.342 12.7122 10.2272 12.8278C10.1124 12.9434 9.97 13.0008 9.8 13H8ZM9.2 10.6C9.03 10.6 8.8876 10.5424 8.7728 10.4272C8.658 10.312 8.6004 10.1696 8.6 10C8.5996 9.8304 8.6572 9.688 8.7728 9.5728C8.8884 9.4576 9.0308 9.4 9.2 9.4H12.8C12.97 9.4 13.1126 9.4576 13.2278 9.5728C13.343 9.688 13.4004 9.8304 13.4 10C13.3996 10.1696 13.342 10.3122 13.2272 10.4278C13.1124 10.5434 12.97 10.6008 12.8 10.6H9.2ZM12.2 13C12.03 13 11.8876 12.9424 11.7728 12.8272C11.658 12.712 11.6004 12.5696 11.6 12.4C11.5996 12.2304 11.6572 12.088 11.7728 11.9728C11.8884 11.8576 12.0308 11.8 12.2 11.8H14C14.5 11.8 14.925 11.625 15.275 11.275C15.625 10.925 15.8 10.5 15.8 10C15.8 9.5 15.625 9.075 15.275 8.725C14.925 8.375 14.5 8.2 14 8.2H12.2C12.03 8.2 11.8876 8.1424 11.7728 8.0272C11.658 7.912 11.6004 7.7696 11.6 7.6C11.5996 7.4304 11.6572 7.288 11.7728 7.1728C11.8884 7.0576 12.0308 7 12.2 7H14C14.83 7 15.5376 7.2926 16.1228 7.8778C16.708 8.463 17.0004 9.1704 17 10C16.9996 10.8296 16.707 11.5372 16.1222 12.1228C15.5374 12.7084 14.83 13.0008 14 13H12.2Z" fill="#666666"/>
</svg>
