<svg width="14" height="14" viewBox="0 0 14 14" fill="none" xmlns="http://www.w3.org/2000/svg">
<path opacity="0.5" d="M9.33325 6.41675H4.66659C4.51188 6.41675 4.3635 6.35529 4.25411 6.24589C4.14471 6.1365 4.08325 5.98812 4.08325 5.83341V4.08341C4.08325 3.30987 4.39054 2.568 4.93752 2.02102C5.48451 1.47404 6.22637 1.16675 6.99992 1.16675C7.77347 1.16675 8.51533 1.47404 9.06231 2.02102C9.60929 2.568 9.91659 3.30987 9.91659 4.08341V5.83341C9.91659 5.98812 9.85513 6.1365 9.74573 6.24589C9.63634 6.35529 9.48796 6.41675 9.33325 6.41675ZM5.24992 5.25008H8.74992V4.08341C8.74992 3.61929 8.56554 3.17417 8.23736 2.84598C7.90917 2.51779 7.46405 2.33341 6.99992 2.33341C6.53579 2.33341 6.09067 2.51779 5.76248 2.84598C5.43429 3.17417 5.24992 3.61929 5.24992 4.08341V5.25008Z" fill="#666666"/>
<path d="M9.91658 5.25H4.08325C3.11675 5.25 2.33325 6.0335 2.33325 7V11.0833C2.33325 12.0498 3.11675 12.8333 4.08325 12.8333H9.91658C10.8831 12.8333 11.6666 12.0498 11.6666 11.0833V7C11.6666 6.0335 10.8831 5.25 9.91658 5.25Z" fill="#666666"/>
</svg>
