<svg width="20" height="20" viewBox="0 0 20 20" fill="none" xmlns="http://www.w3.org/2000/svg">
<rect width="20" height="20" fill="white"/>
<path d="M10.5 5.74902C9.77065 5.74902 9.07139 6.03896 8.55566 6.55469C8.03999 7.0704 7.75 7.76972 7.75 8.49902C7.75005 8.80204 7.87071 9.09236 8.08496 9.30664C8.29922 9.5209 8.58957 9.64153 8.89258 9.6416C9.19568 9.6416 9.48685 9.52097 9.70117 9.30664C9.91529 9.09238 10.0361 8.80194 10.0361 8.49902C10.0361 8.37541 10.0848 8.25731 10.1709 8.17188L10.1719 8.1709C10.2588 8.08391 10.3771 8.0344 10.5 8.03418C10.8031 8.03418 11.0943 7.91452 11.3086 7.7002C11.5229 7.48587 11.6426 7.19468 11.6426 6.8916C11.6426 6.58874 11.5226 6.29825 11.3086 6.08398C11.0943 5.86966 10.8031 5.74902 10.5 5.74902ZM10.3574 12.5205L9.92871 12.459C8.97654 12.3216 8.10529 11.8455 7.47559 11.1182C6.84601 10.3909 6.49976 9.46095 6.5 8.49902C6.5002 7.73234 6.72114 6.98182 7.13574 6.33691C7.55034 5.6921 8.14152 5.17975 8.83887 4.86133C9.53621 4.54298 10.3106 4.43195 11.0693 4.54102C11.8281 4.65013 12.5397 4.97464 13.1191 5.47656C13.6986 5.97854 14.1217 6.63652 14.3379 7.37207C14.5541 8.10764 14.5536 8.89028 14.3379 9.62598C14.1221 10.3613 13.7 11.0193 13.1211 11.5215C12.5419 12.0238 11.8301 12.3495 11.0713 12.459L10.6426 12.5205V16.2129C10.6426 16.2508 10.6274 16.2877 10.6006 16.3145C10.5738 16.341 10.5377 16.3564 10.5 16.3564C10.4623 16.3564 10.4262 16.341 10.3994 16.3145C10.3726 16.2877 10.3574 16.2508 10.3574 16.2129V12.5205Z" fill="#666666" stroke="#666666"/>
</svg>
