<svg width="20" height="20" viewBox="0 0 20 20" fill="none" xmlns="http://www.w3.org/2000/svg">
<rect width="20" height="20" fill="white"/>
<path d="M6.34061 5.65287L7.17206 5.20951C7.4465 5.06333 7.76438 5.02539 8.06641 5.10278C8.36845 5.18016 8.63401 5.36758 8.81355 5.63007L9.70435 6.93182C9.85893 7.15764 9.94139 7.4268 9.94015 7.70151C9.9389 7.97621 9.85401 8.24266 9.6974 8.46345L8.92711 9.54917C8.82432 9.69697 9.01216 10.1607 9.63142 10.8972C10.2512 11.6342 10.6708 11.8923 10.8259 11.8101L11.9872 11.1848C12.2226 11.0581 12.4915 11.0107 12.7562 11.0493C13.0209 11.0879 13.2681 11.2106 13.4632 11.4001L14.5841 12.4898C14.8104 12.7099 14.9524 13.006 14.9835 13.3233C15.0145 13.6406 14.9327 13.9575 14.7531 14.215L14.1991 15.0094C14.0203 15.2658 13.778 15.4681 13.4969 15.5957C13.2159 15.7232 12.9061 15.7715 12.5992 15.7354C11.0869 15.5578 9.51088 14.4746 7.85704 12.508C6.19985 10.5387 5.37789 8.76765 5.41308 7.18579C5.42024 6.86703 5.50996 6.55694 5.673 6.28749C5.83603 6.01804 6.06649 5.79897 6.34061 5.65287Z" fill="#666666"/>
</svg>
