<svg width="20" height="20" viewBox="0 0 20 20" fill="none" xmlns="http://www.w3.org/2000/svg">
<rect width="20" height="20" fill="white"/>
<path d="M10.1663 5C13.0197 5 15.3326 7.31296 15.3326 10.1663C15.3326 13.0197 13.0197 15.3326 10.1663 15.3326C7.31296 15.3326 5 13.0197 5 10.1663C5 7.31296 7.31296 5 10.1663 5ZM10.1663 7.06653C10.0293 7.06653 9.89789 7.12096 9.801 7.21785C9.70412 7.31473 9.64969 7.44614 9.64969 7.58316V10.1663C9.64972 10.3033 9.70417 10.4347 9.80106 10.5316L11.351 12.0815C11.4484 12.1756 11.5789 12.2277 11.7144 12.2265C11.8498 12.2253 11.9794 12.171 12.0752 12.0752C12.171 11.9794 12.2253 11.8498 12.2265 11.7144C12.2277 11.5789 12.1756 11.4484 12.0815 11.351L10.6829 9.95243V7.58316C10.6829 7.44614 10.6285 7.31473 10.5316 7.21785C10.4347 7.12096 10.3033 7.06653 10.1663 7.06653Z" fill="#666666"/>
</svg>
