<svg width="10" height="14" viewBox="0 0 10 14" fill="none" xmlns="http://www.w3.org/2000/svg">
<path opacity="0.5" d="M3.16796 4.2752C3.16814 3.90485 3.27792 3.54283 3.48347 3.23476C3.68902 2.92669 3.98115 2.68633 4.32305 2.54399C4.66496 2.40164 5.04134 2.36366 5.40479 2.43484C5.76824 2.50601 6.10249 2.68316 6.36545 2.94396C6.60169 3.18334 6.77169 3.48021 6.85669 3.80583L6.85794 3.81021C6.9042 3.96555 7.00899 4.09685 7.15021 4.17639C7.29143 4.25594 7.45803 4.27752 7.61485 4.23657C7.77168 4.19562 7.90646 4.09535 7.99076 3.95691C8.07506 3.81848 8.10228 3.65271 8.06669 3.49458C7.92504 2.95354 7.64354 2.45929 7.25044 2.06147C6.81281 1.62555 6.25586 1.32905 5.64987 1.20938C5.04389 1.08971 4.41604 1.15224 3.84555 1.38907C3.27507 1.6259 2.78753 2.02642 2.44447 2.54008C2.10141 3.05374 1.9182 3.65752 1.91797 4.2752V5.5252H3.16796V4.2752Z" fill="#666666"/>
<path d="M1.87499 5.52515H8.12496C8.62223 5.52515 9.09914 5.72269 9.45077 6.07432C9.8024 6.42595 9.99995 6.90286 9.99995 7.40014V11.7751C9.99995 12.2724 9.8024 12.7493 9.45077 13.1009C9.09914 13.4526 8.62223 13.6501 8.12496 13.6501H1.87499C1.37771 13.6501 0.900801 13.4526 0.549172 13.1009C0.197543 12.7493 0 12.2724 0 11.7751V7.40014C0 6.90286 0.197543 6.42595 0.549172 6.07432C0.900801 5.72269 1.37771 5.52515 1.87499 5.52515Z" fill="#666666"/>
</svg>
