<svg width="190" height="183" viewBox="0 0 190 183" fill="none" xmlns="http://www.w3.org/2000/svg">
<path d="M64.0755 34.4742C65.1801 34.4742 66.0755 35.3696 66.0755 36.4742V60.245C66.0755 61.3496 66.9709 62.245 68.0755 62.245H88.4947C89.5993 62.245 90.4947 63.1404 90.4947 64.245V71.7364C90.4947 72.841 89.5993 73.7364 88.4947 73.7364H56.5841C55.4795 73.7364 54.5841 72.841 54.5841 71.7364V36.4742C54.5841 35.3696 55.4795 34.4742 56.5841 34.4742H64.0755Z" fill="white"/>
<path d="M132.066 100.592C133.171 100.592 134.066 101.487 134.066 102.592V126.363C134.066 127.467 134.962 128.363 136.066 128.363H156.485C157.59 128.363 158.485 129.258 158.485 130.363V137.854C158.485 138.959 157.59 139.854 156.485 139.854H124.575C123.47 139.854 122.575 138.959 122.575 137.854V102.592C122.575 101.487 123.47 100.592 124.575 100.592H132.066Z" fill="white"/>
<path d="M104.295 45.4867C105.4 45.4867 106.295 46.3822 106.295 47.4867V78.9185C106.295 80.0231 105.4 80.9185 104.295 80.9185H96.804C95.6994 80.9185 94.804 80.0231 94.804 78.9185V58.9781C94.804 57.8736 93.9085 56.9781 92.804 56.9781H79.5669C78.4623 56.9781 77.5669 56.0827 77.5669 54.9781V47.4867C77.5669 46.3822 78.4623 45.4867 79.5669 45.4867H104.295ZM119.138 34.4742C120.243 34.4742 121.138 35.3696 121.138 36.4742V78.9185C121.138 80.0231 120.243 80.9185 119.138 80.9185H111.647C110.542 80.9185 109.647 80.0231 109.647 78.9185V36.4742C109.647 35.3696 110.542 34.4742 111.647 34.4742H119.138Z" fill="white"/>
<path d="M172.286 111.605C173.391 111.605 174.286 112.5 174.286 113.605V145.036C174.286 146.141 173.391 147.036 172.286 147.036H164.795C163.69 147.036 162.795 146.141 162.795 145.036V125.096C162.795 123.991 161.899 123.096 160.795 123.096H147.558C146.453 123.096 145.558 122.201 145.558 121.096V113.605C145.558 112.5 146.453 111.605 147.558 111.605H172.286ZM187.129 100.592C188.234 100.592 189.129 101.487 189.129 102.592V145.036C189.129 146.141 188.234 147.036 187.129 147.036H179.638C178.533 147.036 177.638 146.141 177.638 145.036V102.592C177.638 101.487 178.533 100.592 179.638 100.592H187.129Z" fill="white"/>
<path d="M44.4444 0C45.549 0 46.4444 0.895431 46.4444 2V9.49139C46.4444 10.596 45.549 11.4914 44.4444 11.4914H21.1523C20.0478 11.4914 19.1523 12.3868 19.1523 13.4914V32.4742C19.1523 33.5787 20.0478 34.4742 21.1523 34.4742H43.4868C44.5913 34.4742 45.4868 35.3696 45.4868 36.4742V65.9907C45.4868 67.0953 44.5913 67.9907 43.4868 67.9907H15.4066C14.3021 67.9907 13.4066 67.0953 13.4066 65.9907V58.4993C13.4066 57.3948 14.3021 56.4993 15.4066 56.4993H31.9954C33.1 56.4993 33.9954 55.6039 33.9954 54.4993V47.9655C33.9954 46.861 33.0999 45.9655 31.9954 45.9655H9.66095C8.55638 45.9655 7.66095 45.0701 7.66095 43.9655V2C7.66095 0.895428 8.55638 0 9.66095 0H44.4444Z" fill="white"/>
<path d="M32.5589 94.3251C32.5589 88.5075 27.8428 83.7914 22.0252 83.7914C16.2075 83.7914 11.4914 88.5075 11.4914 94.3251C11.4914 100.143 16.2075 104.859 22.0252 104.859C27.8428 104.859 32.5589 100.143 32.5589 94.3251ZM44.0503 94.3251C44.0503 106.489 34.1893 116.35 22.0252 116.35C9.861 116.35 0 106.489 0 94.3251C0 82.161 9.861 72.3 22.0252 72.3C34.1893 72.3 44.0503 82.161 44.0503 94.3251Z" fill="white"/>
<path d="M107.126 160.401C107.126 154.583 102.41 149.867 96.5921 149.867C90.7744 149.867 86.0583 154.583 86.0583 160.401C86.0583 166.218 90.7744 170.934 96.5921 170.934C102.41 170.934 107.126 166.218 107.126 160.401ZM118.617 160.401C118.617 172.565 108.756 182.426 96.5921 182.426C84.4279 182.426 74.5669 172.565 74.5669 160.401C74.5669 148.236 84.4279 138.375 96.5921 138.375C108.756 138.375 118.617 148.236 118.617 160.401Z" fill="white"/>
<path d="M59.2874 94.3251C60.392 94.3251 61.2874 95.2206 61.2874 96.3251V122.969C61.2874 124.073 62.1828 124.969 63.2874 124.969H72.694C73.7986 124.969 74.694 124.073 74.694 122.969V119.17C74.694 118.065 73.7986 117.17 72.694 117.17H66.6391C65.5345 117.17 64.6391 116.274 64.6391 115.17V107.678C64.6391 106.574 65.5345 105.678 66.6391 105.678H72.694C73.7986 105.678 74.694 104.783 74.694 103.678V96.3251C74.694 95.2206 75.5895 94.3251 76.694 94.3251H84.1854C85.29 94.3251 86.1854 95.2206 86.1854 96.3251V134.46C86.1854 135.565 85.29 136.46 84.1854 136.46H51.796C50.6914 136.46 49.796 135.565 49.796 134.46V96.3251C49.796 95.2206 50.6915 94.3251 51.796 94.3251H59.2874Z" fill="white"/>
<path d="M114.829 94.3251C115.934 94.3251 116.829 95.2206 116.829 96.3251V103.817C116.829 104.921 115.934 105.817 114.829 105.817H104.465C103.36 105.817 102.465 106.712 102.465 107.817V127.757C102.465 128.861 101.569 129.757 100.465 129.757H92.9735C91.8689 129.757 90.9735 128.861 90.9735 127.757V96.3251C90.9735 95.2206 91.8689 94.3251 92.9735 94.3251H114.829Z" fill="white"/>
</svg>
