<svg width="121" height="117" viewBox="0 0 121 117" fill="none" xmlns="http://www.w3.org/2000/svg">
<path d="M40.2745 22.0559C41.379 22.0559 42.2745 22.9513 42.2745 24.0559V37.8229C42.2745 38.9274 43.1699 39.8229 44.2745 39.8229H55.8972C57.0017 39.8229 57.8972 40.7183 57.8972 41.8229V45.1747C57.8972 46.2793 57.0017 47.1747 55.8972 47.1747H36.9226C35.818 47.1747 34.9226 46.2793 34.9226 45.1747V24.0559C34.9226 22.9513 35.818 22.0559 36.9226 22.0559H40.2745Z" fill="#1DC3FF"/>
<path d="M83.7713 64.3557C84.8759 64.3557 85.7713 65.2512 85.7713 66.3557V80.1227C85.7713 81.2273 86.6667 82.1227 87.7713 82.1227H99.394C100.499 82.1227 101.394 83.0182 101.394 84.1227V87.4746C101.394 88.5792 100.499 89.4746 99.394 89.4746H80.4194C79.3149 89.4746 78.4194 88.5792 78.4194 87.4746V66.3557C78.4194 65.2512 79.3149 64.3557 80.4194 64.3557H83.7713Z" fill="#1DC3FF"/>
<path d="M66.0044 29.1014C67.109 29.1014 68.0044 29.9968 68.0044 31.1014V49.7696C68.0044 50.8742 67.109 51.7696 66.0044 51.7696H62.6525C61.548 51.7696 60.6525 50.8742 60.6525 49.7696V38.4533C60.6525 37.3487 59.7571 36.4533 58.6525 36.4533H51.6248C50.5202 36.4533 49.6248 35.5578 49.6248 34.4533V31.1014C49.6248 29.9968 50.5202 29.1014 51.6248 29.1014H66.0044ZM75.5006 22.0559C76.6051 22.0559 77.5006 22.9513 77.5006 24.0559V49.7696C77.5006 50.8742 76.6051 51.7696 75.5006 51.7696H72.1487C71.0441 51.7696 70.1487 50.8742 70.1487 49.7696V24.0559C70.1487 22.9513 71.0441 22.0559 72.1487 22.0559H75.5006Z" fill="#1DC3FF"/>
<path d="M109.504 71.4013C110.608 71.4013 111.504 72.2967 111.504 73.4013V92.0695C111.504 93.1741 110.608 94.0695 109.504 94.0695H106.152C105.047 94.0695 104.152 93.1741 104.152 92.0695V80.7531C104.152 79.6486 103.257 78.7531 102.152 78.7531H95.1243C94.0197 78.7531 93.1243 77.8577 93.1243 76.7531V73.4013C93.1243 72.2967 94.0197 71.4013 95.1243 71.4013H109.504ZM119 64.3557C120.105 64.3557 121 65.2512 121 66.3557V92.0695C121 93.1741 120.105 94.0695 119 94.0695H115.648C114.544 94.0695 113.648 93.1741 113.648 92.0695V66.3557C113.648 65.2512 114.544 64.3557 115.648 64.3557H119Z" fill="#1DC3FF"/>
<path d="M27.7132 0C28.8177 0 29.7132 0.895431 29.7132 2V5.35186C29.7132 6.45643 28.8177 7.35186 27.7132 7.35186H14.2525C13.1479 7.35186 12.2525 8.24729 12.2525 9.35186V20.0556C12.2525 21.1601 13.1479 22.0556 14.2525 22.0556H27.1005C28.2051 22.0556 29.1005 22.951 29.1005 24.0556V41.4985C29.1005 42.6031 28.2051 43.4985 27.1005 43.4985H10.5766C9.472 43.4985 8.57656 42.6031 8.57656 41.4985V38.1466C8.57656 37.0421 9.47199 36.1466 10.5766 36.1466H19.7486C20.8532 36.1466 21.7486 35.2512 21.7486 34.1466V31.4074C21.7486 30.3029 20.8532 29.4074 19.7486 29.4074H6.90063C5.79607 29.4074 4.90063 28.512 4.90063 27.4074V2C4.90063 0.895433 5.79607 0 6.90063 0H27.7132Z" fill="#1DC3FF"/>
<path d="M20.8303 60.3464C20.8303 56.6244 17.813 53.6072 14.0911 53.6072C10.3691 53.6072 7.35186 56.6244 7.35186 60.3464C7.35186 64.0684 10.3691 67.0856 14.0911 67.0856C17.813 67.0856 20.8303 64.0684 20.8303 60.3464ZM28.1821 60.3464C28.1821 68.1287 21.8733 74.4375 14.0911 74.4375C6.30878 74.4375 0 68.1287 0 60.3464C0 52.5641 6.30878 46.2553 14.0911 46.2553C21.8733 46.2553 28.1821 52.5641 28.1821 60.3464Z" fill="#1DC3FF"/>
<path d="M68.5358 102.619C68.5358 98.8975 65.5186 95.8802 61.7966 95.8802C58.0747 95.8802 55.0574 98.8975 55.0574 102.619C55.0574 106.341 58.0747 109.359 61.7966 109.359C65.5186 109.359 68.5358 106.341 68.5358 102.619ZM75.8877 102.619C75.8877 110.402 69.5789 116.71 61.7966 116.71C54.0144 116.71 47.7056 110.402 47.7056 102.619C47.7056 94.8371 54.0144 88.5284 61.7966 88.5284C69.5789 88.5284 75.8877 94.8371 75.8877 102.619Z" fill="#1DC3FF"/>
<path d="M37.2105 60.3466C38.3151 60.3466 39.2105 61.242 39.2105 62.3466V77.9515C39.2105 79.0561 40.1059 79.9515 41.2105 79.9515H45.7877C46.8922 79.9515 47.7877 79.0561 47.7877 77.9515V76.9617C47.7877 75.8572 46.8922 74.9617 45.7877 74.9617H43.3548C42.2502 74.9617 41.3548 74.0663 41.3548 72.9617V69.6099C41.3548 68.5053 42.2502 67.6099 43.3548 67.6099H45.7877C46.8922 67.6099 47.7877 66.7144 47.7877 65.6099V62.3466C47.7877 61.242 48.6831 60.3466 49.7877 60.3466H53.1395C54.2441 60.3466 55.1395 61.242 55.1395 62.3466V85.3034C55.1395 86.4079 54.2441 87.3034 53.1395 87.3034H33.8586C32.7541 87.3034 31.8586 86.4079 31.8586 85.3034V62.3466C31.8586 61.242 32.7541 60.3466 33.8586 60.3466H37.2105Z" fill="#1DC3FF"/>
<path d="M72.7433 60.3466C73.8479 60.3466 74.7433 61.242 74.7433 62.3466V65.6984C74.7433 66.803 73.8479 67.6984 72.7433 67.6984H67.5535C66.449 67.6984 65.5535 68.5938 65.5535 69.6984V81.0148C65.5535 82.1194 64.6581 83.0148 63.5535 83.0148H60.2017C59.0971 83.0148 58.2017 82.1194 58.2017 81.0148V62.3466C58.2017 61.242 59.0971 60.3466 60.2017 60.3466H72.7433Z" fill="#1DC3FF"/>
</svg>
