<svg width="52" height="56" viewBox="0 0 52 56" fill="none" xmlns="http://www.w3.org/2000/svg">
<g filter="url(#filter0_d_240_79)">
<rect x="3" y="3" width="46" height="50" rx="10" fill="#1DC3FF" shape-rendering="crispEdges"/>
<path d="M23.0009 28.9844V22.3177L27.0009 18.9844" stroke="white" stroke-width="2.5" stroke-linecap="round" stroke-linejoin="round"/>
<path d="M32.6212 14.5475C33.117 14.5475 33.4557 15.0487 33.2707 15.5087L30.2776 22.9524C30.0795 23.4452 29.4263 23.5465 29.0882 23.1368L22.9457 15.6931C22.5689 15.2365 22.8937 14.5475 23.4856 14.5475L32.6212 14.5475Z" fill="white"/>
<path d="M20.6143 34.5801V39.0332H19.6865V34.5801H20.6143ZM17.9873 34.9707C17.9775 37.2656 16.4834 38.623 13.8369 39.209L13.4951 38.457C15.6875 37.998 16.8301 37.0166 16.9717 35.7324H13.9541V34.9707H17.9873ZM20.6143 39.4238V41.6211H15.8096V42.5098H20.9072V43.2422H14.8916V40.9277H19.6865V40.1562H14.8623V39.4238H20.6143ZM25.0674 36.3867C25.0674 37.3828 25.8584 38.3203 27.1963 38.6914L26.7764 39.4043C25.7559 39.1211 25.0088 38.5059 24.6182 37.7148C24.2324 38.5791 23.4658 39.2529 22.4307 39.5703L21.9814 38.8379C23.3193 38.457 24.1494 37.4805 24.1494 36.3867V36.2891H22.2451V35.5469H24.1494V34.541H25.0771V35.5469H26.9717V36.2891H25.0674V36.3867ZM28.876 34.5801V36.6797H30.1455V37.4512H28.876V39.6289H27.9482V34.5801H28.876ZM29.0127 40.0684V40.8105H26.6201C26.7861 41.626 27.9092 42.373 29.374 42.5879L29.0322 43.3008C27.7041 43.0957 26.6104 42.4854 26.1025 41.6504C25.5996 42.4805 24.5156 43.0811 23.1924 43.291L22.8506 42.5781C24.3203 42.373 25.4287 41.6504 25.6045 40.8105H23.2021V40.0684H29.0127ZM37.9189 34.5801V43.3301H36.9814V34.5801H37.9189ZM35.3115 35.5176C35.3115 38.0762 34.2178 40.3027 31.2197 41.7383L30.7314 40.9863C33.0605 39.8779 34.1934 38.3008 34.374 36.2598H31.1514V35.5176H35.3115Z" fill="white"/>
</g>
<defs>
<filter id="filter0_d_240_79" x="0" y="0" width="52" height="56" filterUnits="userSpaceOnUse" color-interpolation-filters="sRGB">
<feFlood flood-opacity="0" result="BackgroundImageFix"/>
<feColorMatrix in="SourceAlpha" type="matrix" values="0 0 0 0 0 0 0 0 0 0 0 0 0 0 0 0 0 0 127 0" result="hardAlpha"/>
<feOffset/>
<feGaussianBlur stdDeviation="1.5"/>
<feComposite in2="hardAlpha" operator="out"/>
<feColorMatrix type="matrix" values="0 0 0 0 0.545098 0 0 0 0 0.521569 0 0 0 0 0.521569 0 0 0 0.7 0"/>
<feBlend mode="normal" in2="BackgroundImageFix" result="effect1_dropShadow_240_79"/>
<feBlend mode="normal" in="SourceGraphic" in2="effect1_dropShadow_240_79" result="shape"/>
</filter>
</defs>
</svg>
