<svg width="27" height="27" viewBox="0 0 27 27" fill="none" xmlns="http://www.w3.org/2000/svg">
<circle cx="13.5" cy="13.5" r="13.5" fill="#EBEBEB"/>
<path d="M13.6094 8.71289C12.872 8.71299 12.1611 8.99444 11.6338 9.50098C11.1057 10.0082 10.8047 10.7004 10.8047 11.4268C10.8047 11.7337 10.9322 12.0237 11.1514 12.2344C11.37 12.4444 11.6629 12.5596 11.9639 12.5596C12.2646 12.5595 12.5568 12.4443 12.7754 12.2344C12.9946 12.0237 13.1221 11.7337 13.1221 11.4268C13.1221 11.3139 13.1685 11.2024 13.2568 11.1182L13.2588 11.1172C13.3486 11.0308 13.474 10.9779 13.6094 10.9775C13.9103 10.9775 14.2032 10.8634 14.4219 10.6533C14.6411 10.4427 14.7685 10.1526 14.7686 9.8457C14.7686 9.53869 14.6412 9.24782 14.4219 9.03711C14.2032 8.82718 13.9102 8.71289 13.6094 8.71289ZM13.4512 15.375L13.0195 15.3154C12.0363 15.179 11.141 14.7075 10.4961 13.9922C9.85158 13.2771 9.49975 12.3656 9.5 11.4268C9.50026 10.6784 9.72408 9.94416 10.1475 9.31152C10.571 8.67869 11.1772 8.17356 11.8955 7.8584C12.6141 7.54319 13.4136 7.43184 14.1973 7.54004C14.9809 7.64823 15.7138 7.97088 16.3086 8.46582C16.903 8.96056 17.3347 9.6071 17.5547 10.3262C17.7745 11.0451 17.7742 11.8093 17.5547 12.5283C17.3351 13.2476 16.9038 13.8936 16.3096 14.3887C15.7151 14.8839 14.9827 15.2068 14.1992 15.3154L13.7686 15.375V19.0176C13.7686 19.046 13.7569 19.078 13.7295 19.1045C13.7012 19.1317 13.6578 19.1504 13.6094 19.1504C13.5611 19.1503 13.5185 19.1316 13.4902 19.1045C13.4627 19.078 13.4512 19.046 13.4512 19.0176V15.375Z" fill="#8B8585" stroke="#8B8585"/>
</svg>
