<svg width="14" height="15" viewBox="0 0 14 15" fill="none" xmlns="http://www.w3.org/2000/svg">
<path opacity="0.5" d="M9.33325 6.91675H4.66659C4.51188 6.91675 4.3635 6.85529 4.25411 6.74589C4.14471 6.6365 4.08325 6.48812 4.08325 6.33341V4.58341C4.08325 3.80987 4.39054 3.068 4.93752 2.52102C5.48451 1.97404 6.22637 1.66675 6.99992 1.66675C7.77347 1.66675 8.51533 1.97404 9.06231 2.52102C9.60929 3.068 9.91659 3.80987 9.91659 4.58341V6.33341C9.91659 6.48812 9.85513 6.6365 9.74573 6.74589C9.63634 6.85529 9.48796 6.91675 9.33325 6.91675ZM5.24992 5.75008H8.74992V4.58341C8.74992 4.11929 8.56554 3.67417 8.23736 3.34598C7.90917 3.01779 7.46405 2.83341 6.99992 2.83341C6.53579 2.83341 6.09067 3.01779 5.76248 3.34598C5.43429 3.67417 5.24992 4.11929 5.24992 4.58341V5.75008Z" fill="#DDDDE4"/>
<path d="M9.91658 5.75H4.08325C3.11675 5.75 2.33325 6.5335 2.33325 7.5V11.5833C2.33325 12.5498 3.11675 13.3333 4.08325 13.3333H9.91658C10.8831 13.3333 11.6666 12.5498 11.6666 11.5833V7.5C11.6666 6.5335 10.8831 5.75 9.91658 5.75Z" fill="#DDDDE4"/>
</svg>
