<svg width="17" height="16" viewBox="0 0 17 16" fill="none" xmlns="http://www.w3.org/2000/svg">
<path d="M7.54894 1.42705C7.8483 0.505742 9.1517 0.505739 9.45106 1.42705L10.6329 5.06434C10.7668 5.47636 11.1507 5.75532 11.5839 5.75532H15.4084C16.3771 5.75532 16.7799 6.99494 15.9962 7.56434L12.9021 9.81231C12.5516 10.0669 12.405 10.5183 12.5389 10.9303L13.7207 14.5676C14.02 15.4889 12.9656 16.2551 12.1818 15.6857L9.08779 13.4377C8.7373 13.1831 8.2627 13.1831 7.91222 13.4377L4.81815 15.6857C4.03444 16.2551 2.97996 15.4889 3.27931 14.5676L4.46114 10.9303C4.59501 10.5183 4.44835 10.0669 4.09787 9.81231L1.00381 7.56434C0.220092 6.99494 0.622867 5.75532 1.59159 5.75532H5.41606C5.84929 5.75532 6.23324 5.47636 6.36712 5.06434L7.54894 1.42705Z" fill="#FFD555"/>
</svg>
