<svg width="24" height="22" viewBox="0 0 24 22" fill="none" xmlns="http://www.w3.org/2000/svg">
<path opacity="0.5" d="M1.75513 3.39453C1.95827 3.30772 2.23219 3.28605 2.72485 3.38477C3.2223 3.48445 3.86066 3.68737 4.76489 3.97656L4.76587 3.97754C6.04851 4.38698 6.81918 4.6381 7.58813 4.63086V20.7891C7.13669 20.7817 6.62497 20.664 5.84692 20.4297L4.68286 20.0645L3.19458 19.5889C2.55144 19.3832 2.1079 19.2402 1.77759 19.0928C1.45781 18.95 1.29336 18.823 1.18286 18.6758C1.07363 18.5302 1.00234 18.3452 0.963135 18.0156C0.922277 17.672 0.921143 17.2272 0.921143 16.5762V6.61133C0.921143 5.69504 0.92249 5.05354 0.980713 4.57324C1.03798 4.10112 1.1415 3.86853 1.28442 3.71777L1.2854 3.71875C1.4158 3.58199 1.57564 3.47115 1.75513 3.39453ZM16.2542 0.5C16.7056 0.507324 17.2173 0.626028 17.9954 0.860352L19.1594 1.22559L20.6477 1.70117C21.2908 1.90684 21.7344 2.04983 22.0647 2.19727C22.3845 2.34002 22.5489 2.46705 22.6594 2.61426C22.7687 2.75985 22.8399 2.94477 22.8792 3.27441C22.92 3.61816 22.9211 4.06352 22.9211 4.71484V14.6777C22.9211 15.594 22.9198 16.2355 22.8616 16.7158C22.8043 17.1879 22.6998 17.4196 22.5569 17.5703C22.4265 17.7071 22.2666 17.8179 22.0872 17.8945C21.884 17.9813 21.6101 18.003 21.1174 17.9043C20.62 17.8046 19.9816 17.6017 19.0774 17.3125L19.0764 17.3115C17.7938 16.9021 17.0231 16.65 16.2542 16.6572V0.5Z" fill="white" stroke="white"/>
<mask id="path-2-inside-1_375_802" fill="white">
<path d="M8.4035 4.03676C8.29872 4.05883 8.19352 4.07803 8.08789 4.09438V21.258C8.944 21.1305 9.70939 20.6414 11.2082 19.6827L12.9741 18.5523C14.1701 17.7873 14.7681 17.4048 15.4402 17.2528C15.5424 17.2283 15.6472 17.2091 15.7546 17.1952V0.0314941C14.8984 0.15777 14.1331 0.64816 12.6342 1.60565L10.8683 2.736C9.67233 3.50101 9.07434 3.88351 8.40222 4.03553"/>
</mask>
<path d="M8.4035 4.03676C8.29872 4.05883 8.19352 4.07803 8.08789 4.09438V21.258C8.944 21.1305 9.70939 20.6414 11.2082 19.6827L12.9741 18.5523C14.1701 17.7873 14.7681 17.4048 15.4402 17.2528C15.5424 17.2283 15.6472 17.2091 15.7546 17.1952V0.0314941C14.8984 0.15777 14.1331 0.64816 12.6342 1.60565L10.8683 2.736C9.67233 3.50101 9.07434 3.88351 8.40222 4.03553" fill="white"/>
<path d="M18.9247 17.7885L18.7735 18.2651L19.0981 18.3681L19.2493 17.8915L19.4005 17.4149L19.0759 17.3119L18.9247 17.7885ZM8.08789 4.09438L7.93496 3.10614L7.08789 3.23723V4.09438H8.08789ZM8.08789 21.258H7.08789V22.418L8.2352 22.2471L8.08789 21.258ZM11.2082 19.6827L11.7471 20.5251L11.7473 20.5249L11.2082 19.6827ZM12.9741 18.5523L12.4353 17.7099L12.435 17.7101L12.9741 18.5523ZM15.4402 17.2528L15.6609 18.2282L15.6735 18.2252L15.4402 17.2528ZM15.7546 17.1952L15.8829 18.1869L16.7546 18.0741V17.1952H15.7546ZM15.7546 0.0314941H16.7546V-1.12682L15.6086 -0.957802L15.7546 0.0314941ZM12.6342 1.60565L12.0959 0.762925L12.0951 0.763415L12.6342 1.60565ZM10.8683 2.736L11.4072 3.57841L11.4074 3.57823L10.8683 2.736ZM8.4035 4.03676L8.19741 3.05823C8.11023 3.07659 8.02275 3.09256 7.93496 3.10614L8.08789 4.09438L8.24082 5.08262C8.36429 5.06351 8.48722 5.04106 8.60959 5.01529L8.4035 4.03676ZM8.08789 4.09438H7.08789V21.258H8.08789H9.08789V4.09438H8.08789ZM8.08789 21.258L8.2352 22.2471C9.35225 22.0808 10.3236 21.4356 11.7471 20.5251L11.2082 19.6827L10.6694 18.8403C9.09516 19.8472 8.53575 20.1803 7.94058 20.269L8.08789 21.258ZM11.2082 19.6827L11.7473 20.5249L13.5132 19.3945L12.9741 18.5523L12.435 17.7101L10.6691 18.8404L11.2082 19.6827ZM12.9741 18.5523L13.513 19.3947C14.7691 18.5912 15.1992 18.3326 15.6608 18.2281L15.4402 17.2528L15.2196 16.2774C14.337 16.477 13.5711 16.9834 12.4353 17.7099L12.9741 18.5523ZM15.4402 17.2528L15.6735 18.2252C15.7401 18.2092 15.8098 18.1963 15.8829 18.1869L15.7546 17.1952L15.6262 16.2034C15.4846 16.2218 15.3448 16.2473 15.207 16.2804L15.4402 17.2528ZM15.7546 17.1952H16.7546V0.0314941H15.7546H14.7546V17.1952H15.7546ZM15.7546 0.0314941L15.6086 -0.957802C14.4906 -0.792896 13.5178 -0.145413 12.0959 0.762925L12.6342 1.60565L13.1726 2.44837C14.7483 1.44173 15.3063 1.10844 15.9005 1.02079L15.7546 0.0314941ZM12.6342 1.60565L12.0951 0.763415L10.3292 1.89376L10.8683 2.736L11.4074 3.57823L13.1733 2.44788L12.6342 1.60565ZM10.8683 2.736L10.3295 1.89359C9.07334 2.69707 8.64324 2.95576 8.18161 3.06017L8.40222 4.03553L8.62284 5.01089C9.50543 4.81127 10.2713 4.30494 11.4072 3.57841L10.8683 2.736Z" fill="white" mask="url(#path-2-inside-1_375_802)"/>
</svg>
