<svg width="84" height="52" viewBox="0 0 84 52" fill="none" xmlns="http://www.w3.org/2000/svg">
<g filter="url(#filter0_d_756_3811)">
<path d="M80 34.4519C80 39.9748 75.5228 44.4519 70 44.4519L44.7528 44.4519C44.5938 44.4519 44.4443 44.5275 44.3501 44.6556L42.2719 47.4801C42.0781 47.7434 41.6879 47.753 41.4814 47.4994L39.15 44.6362C39.0551 44.5196 38.9127 44.4519 38.7623 44.4519L14 44.4519C8.47712 44.4519 3.99997 39.9748 3.99997 34.4519L3.99997 14.0001C3.99997 8.47721 8.47712 4.00007 14 4.00007L70 4.00006C75.5228 4.00006 80 8.47721 80 14.0001L80 34.4519Z" fill="#FFD555"/>
</g>
<defs>
<filter id="filter0_d_756_3811" x="-3.05176e-05" y="6.10352e-05" width="84" height="51.6837" filterUnits="userSpaceOnUse" color-interpolation-filters="sRGB">
<feFlood flood-opacity="0" result="BackgroundImageFix"/>
<feColorMatrix in="SourceAlpha" type="matrix" values="0 0 0 0 0 0 0 0 0 0 0 0 0 0 0 0 0 0 127 0" result="hardAlpha"/>
<feOffset/>
<feGaussianBlur stdDeviation="2"/>
<feComposite in2="hardAlpha" operator="out"/>
<feColorMatrix type="matrix" values="0 0 0 0 0 0 0 0 0 0 0 0 0 0 0 0 0 0 0.1 0"/>
<feBlend mode="normal" in2="BackgroundImageFix" result="effect1_dropShadow_756_3811"/>
<feBlend mode="normal" in="SourceGraphic" in2="effect1_dropShadow_756_3811" result="shape"/>
</filter>
</defs>
</svg>
